<svg width="25" height="24" viewBox="0 0 25 24" fill="none" xmlns="http://www.w3.org/2000/svg">
<path fill-rule="evenodd" clip-rule="evenodd" d="M12.7571 4.73244C13.3549 4.38663 13.7571 3.74028 13.7571 3C13.7571 1.89543 12.8617 1 11.7571 1C10.6525 1 9.75708 1.89543 9.75708 3C9.75708 3.74028 10.1593 4.38663 10.7571 4.73244V6H8.75774C5.43362 6 2.75708 8.68349 2.75708 11.9937V14.0063C2.75708 17.3052 5.44367 20 8.75774 20H15.2571L21.7571 22.9998V11.9937C21.7571 8.69478 19.0705 6 15.7564 6H12.7571V4.73244ZM19.7571 19.6224V11.9937C19.7571 9.79539 17.962 8 15.7564 8H8.75774C6.54166 8 4.75708 9.78458 4.75708 11.9937V14.0063C4.75708 16.2046 6.5522 18 8.75774 18H16.2571L19.7571 19.6224ZM13.7571 12H15.7571V14H13.7571V12ZM8.75708 12H10.7571V14H8.75708V12Z" fill="white"/>
</svg>
