<svg width="19" height="19" viewBox="0 0 19 19" fill="none" xmlns="http://www.w3.org/2000/svg">
<g clip-path="url(#clip0_680_3236)">
<path fill-rule="evenodd" clip-rule="evenodd" d="M9.73111 3.72401C10.1905 3.46687 10.4996 2.98625 10.4996 2.43578C10.4996 1.61444 9.81149 0.948608 8.96264 0.948608C8.11381 0.948608 7.42569 1.61444 7.42569 2.43578C7.42569 2.98625 7.73477 3.46687 8.19416 3.72401V4.66655H6.65773C4.10323 4.66655 2.04639 6.66196 2.04639 9.12339V10.6199C2.04639 13.073 4.11096 15.0768 6.65773 15.0768H11.6523L16.6474 17.3074V9.12339C16.6474 6.67036 14.5828 4.66655 12.036 4.66655H9.73111V3.72401ZM15.1104 14.796V9.12339C15.1104 7.48876 13.7309 6.15373 12.036 6.15373H6.65773C4.95473 6.15373 3.58333 7.48072 3.58333 9.12339V10.6199C3.58333 12.2546 4.96283 13.5896 6.65773 13.5896H12.4208L15.1104 14.796ZM10.4996 9.12808H12.0365V10.6153H10.4996V9.12808ZM6.65722 9.12808H8.19416V10.6153H6.65722V9.12808Z" fill="#0E70FF"/>
</g>
<defs>
<clipPath id="clip0_680_3236">
<rect width="18.4433" height="17.8461" fill="white" transform="translate(0.125 0.205078)"/>
</clipPath>
</defs>
</svg>
