<svg width="15" height="18" viewBox="0 0 15 18" fill="none" xmlns="http://www.w3.org/2000/svg">
<path fill-rule="evenodd" clip-rule="evenodd" d="M7.875 3.54933C8.32335 3.28997 8.625 2.80521 8.625 2.25C8.625 1.42157 7.95345 0.75 7.125 0.75C6.29657 0.75 5.625 1.42157 5.625 2.25C5.625 2.80521 5.92665 3.28997 6.375 3.54933V4.5H4.8755C2.38241 4.5 0.375 6.51262 0.375 8.99528V10.5047C0.375 12.9789 2.38994 15 4.8755 15H9.75L14.625 17.2498V8.99528C14.625 6.52109 12.6101 4.5 10.1245 4.5H7.875V3.54933ZM13.125 14.7168V8.99528C13.125 7.34654 11.7787 6 10.1245 6H4.8755C3.21344 6 1.875 7.33844 1.875 8.99528V10.5047C1.875 12.1535 3.22134 13.5 4.8755 13.5H10.5L13.125 14.7168ZM8.625 9H10.125V10.5H8.625V9ZM4.875 9H6.375V10.5H4.875V9Z" fill="#999999"/>
</svg>
