<?xml version="1.0" standalone="no"?>
<!DOCTYPE svg PUBLIC "-//W3C//DTD SVG 20010904//EN"
 "http://www.w3.org/TR/2001/REC-SVG-20010904/DTD/svg10.dtd">
<svg version="1.0" xmlns="http://www.w3.org/2000/svg"
 width="1920.000000pt" height="1920.000000pt" viewBox="0 0 1920.000000 1920.000000"
 preserveAspectRatio="xMidYMid meet">
<metadata>
Created by potrace 1.16, written by Peter Selinger 2001-2019
</metadata>
<g transform="translate(0.000000,1920.000000) scale(0.100000,-0.100000)"
fill="#0047AB" stroke="none">
<path d="M9466 17579 c-77 -10 -182 -57 -262 -117 -127 -97 -224 -303 -224
-481 0 -99 22 -194 69 -291 51 -106 208 -249 319 -290 31 -12 63 -28 70 -37 9
-13 12 -331 12 -1513 0 -1337 -2 -1498 -16 -1518 l-15 -22 -785 0 c-522 0
-792 3 -805 10 -18 10 -19 28 -19 678 0 367 4 672 8 679 4 6 37 25 73 42 173
80 313 237 349 391 7 30 16 65 21 78 13 32 11 173 -2 229 -29 121 -87 231
-163 312 -51 53 -158 124 -222 146 -50 17 -178 38 -229 38 -69 0 -175 -23
-245 -52 -182 -76 -295 -211 -350 -416 -34 -127 -20 -290 36 -412 56 -125 175
-242 310 -307 40 -20 75 -40 78 -45 12 -19 7 -1354 -5 -1361 -6 -4 -162 -10
-347 -13 -376 -6 -431 -13 -586 -75 -50 -20 -122 -56 -161 -80 -98 -63 -256
-220 -321 -319 -30 -46 -54 -85 -54 -88 0 -2 -11 -28 -24 -57 -75 -168 -86
-245 -86 -621 0 -177 -4 -328 -9 -335 -6 -11 -139 -13 -686 -13 -373 1 -679 2
-680 4 -1 1 -16 32 -33 68 -65 138 -186 264 -311 322 -80 38 -123 48 -236 54
-244 14 -478 -119 -579 -330 -47 -96 -58 -151 -59 -282 -1 -130 13 -194 61
-294 78 -161 235 -278 432 -321 58 -13 186 -9 272 8 149 28 330 176 401 327
21 44 42 87 46 95 7 13 93 15 681 15 554 1 675 -2 686 -13 12 -11 14 -150 14
-801 0 -738 -1 -789 -17 -803 -16 -13 -200 -14 -1483 -12 -806 2 -1486 3
-1513 4 -42 0 -49 3 -58 28 -49 122 -67 149 -159 242 -135 135 -223 176 -410
187 -173 11 -365 -65 -481 -189 -40 -44 -107 -153 -127 -207 -24 -70 -37 -237
-24 -325 18 -121 44 -183 125 -292 95 -130 295 -224 475 -224 187 0 317 56
455 196 63 64 102 126 145 235 l10 26 258 6 c141 4 821 7 1511 7 1240 0 1253
0 1273 -20 20 -20 20 -33 20 -802 0 -431 -4 -789 -9 -796 -12 -19 -1363 -19
-1372 0 -4 7 -21 43 -39 79 -56 116 -175 241 -281 295 -107 54 -302 81 -393
55 -180 -52 -262 -97 -348 -190 -60 -64 -119 -176 -139 -261 -16 -71 -16 -249
0 -320 51 -220 225 -386 472 -450 51 -13 215 -9 287 8 149 34 327 179 395 324
21 42 37 81 37 87 0 6 8 15 18 20 30 16 1338 9 1354 -7 10 -10 14 -99 19 -360
6 -389 12 -426 88 -601 52 -121 101 -191 205 -299 94 -97 178 -160 293 -217
174 -86 298 -105 690 -104 153 0 286 -2 295 -6 9 -4 18 -12 20 -18 2 -7 1
-313 -2 -682 l-5 -670 -78 -40 c-180 -92 -302 -232 -337 -387 -7 -29 -16 -63
-21 -76 -13 -32 -11 -162 2 -219 45 -190 125 -313 266 -404 104 -68 187 -91
328 -93 139 -1 200 11 304 62 207 100 342 335 328 570 -3 48 -9 107 -14 132
-31 151 -182 334 -343 412 -47 23 -88 46 -92 52 -4 6 -8 311 -8 678 l0 667 23
13 c17 9 204 12 798 12 750 1 778 0 798 -18 l21 -19 0 -1487 c0 -1050 -3
-1496 -11 -1518 -8 -24 -20 -34 -47 -42 -68 -18 -147 -72 -232 -159 -89 -90
-129 -156 -151 -247 -6 -27 -15 -59 -20 -72 -12 -32 -11 -176 2 -226 26 -99
34 -123 52 -161 47 -97 117 -176 203 -231 119 -76 154 -86 319 -92 212 -7 261
6 403 101 106 70 185 181 221 310 6 20 16 52 21 70 13 45 13 185 -1 244 -34
140 -85 228 -193 330 -66 64 -172 133 -202 133 -6 0 -22 9 -35 19 l-24 19 -3
1504 c-3 1396 -2 1506 14 1519 29 24 352 32 989 24 332 -4 608 -11 615 -15 8
-5 11 -173 11 -685 -1 -374 -4 -682 -8 -685 -5 -4 -24 -13 -43 -20 -105 -41
-235 -146 -297 -238 -33 -49 -56 -106 -94 -238 -12 -42 -11 -164 2 -221 58
-248 194 -403 414 -474 103 -33 289 -33 395 1 303 96 471 406 403 741 -30 148
-188 337 -344 413 -38 19 -76 39 -84 46 -14 12 -16 92 -14 679 0 440 4 670 11
679 8 9 77 12 285 12 392 0 514 16 683 89 115 50 197 107 308 215 177 172 275
370 301 606 5 47 9 215 10 373 0 211 3 293 12 303 11 13 105 15 678 13 366 -1
674 -6 684 -11 9 -5 17 -14 17 -21 0 -7 17 -46 37 -87 65 -127 214 -258 348
-305 221 -78 492 -17 655 147 53 52 114 157 141 238 21 65 24 93 23 206 -1
111 -5 142 -25 200 -72 208 -229 347 -454 400 -49 12 -226 9 -284 -4 -100 -22
-179 -70 -277 -164 -74 -72 -97 -102 -128 -165 -20 -43 -40 -84 -44 -92 -6
-11 -123 -13 -687 -12 -374 1 -683 5 -687 9 -4 4 -8 364 -10 799 -2 632 0 795
10 805 10 10 312 14 1512 16 955 1 1507 -1 1524 -8 16 -6 28 -20 32 -37 23
-97 148 -255 257 -326 107 -69 231 -102 362 -94 114 6 156 16 236 54 196 93
317 257 340 461 20 176 -2 302 -75 425 -93 156 -194 226 -412 288 -45 12 -202
7 -276 -10 -98 -22 -178 -71 -279 -171 -85 -85 -99 -104 -128 -175 -18 -44
-40 -86 -48 -92 -13 -10 -346 -12 -1525 -10 -1306 3 -1511 5 -1519 17 -14 24
-12 1593 3 1608 16 16 1329 17 1359 2 10 -6 19 -17 19 -24 0 -22 58 -127 102
-184 196 -254 553 -316 828 -144 237 148 335 435 247 726 -23 77 -94 192 -153
248 -59 55 -158 114 -222 133 -31 9 -73 21 -93 27 -38 11 -194 6 -270 -9 -90
-18 -188 -76 -278 -166 -83 -83 -108 -119 -150 -217 -12 -28 -27 -50 -34 -50
-7 -1 -313 0 -682 0 -514 1 -671 3 -677 13 -4 7 -8 149 -8 317 0 398 -16 494
-112 685 -56 113 -112 187 -215 286 -128 123 -244 193 -405 244 -108 34 -241
45 -555 45 -170 0 -282 4 -294 10 -18 10 -19 29 -19 679 0 754 -9 676 85 721
178 85 320 251 356 415 60 276 -40 536 -262 680 -79 51 -136 72 -238 87 -92
13 -116 13 -208 0 -221 -34 -402 -184 -472 -390 -66 -199 -52 -361 48 -542 44
-78 160 -182 263 -235 51 -26 94 -49 96 -50 6 -5 3 -1356 -3 -1365 -7 -11
-1570 -13 -1597 -2 -17 7 -18 95 -23 1513 l-5 1506 21 27 c11 14 27 26 36 26
38 0 154 75 221 143 119 121 138 154 181 323 13 51 14 197 2 238 -5 17 -15 50
-22 73 -33 116 -125 244 -223 311 -105 72 -154 91 -259 102 -106 11 -145 11
-241 -1z m215 -328 c81 -17 157 -90 197 -190 33 -80 31 -94 -23 -217 -44 -98
-135 -153 -253 -154 -127 0 -215 58 -270 178 -29 64 -39 125 -24 155 5 12 18
42 27 67 29 79 104 142 198 165 50 13 66 12 148 -4z m-1929 -1687 c35 -11 62
-31 103 -75 30 -33 55 -65 55 -70 0 -6 9 -29 20 -51 25 -52 25 -79 1 -145 -37
-102 -82 -154 -167 -197 -104 -52 -238 -24 -321 67 -66 73 -115 218 -85 253 5
5 14 27 20 50 15 51 81 128 134 155 79 40 145 44 240 13z m3900 -1 c35 -11 61
-30 103 -74 30 -33 55 -64 55 -70 0 -5 10 -30 21 -54 26 -55 22 -99 -14 -178
-33 -73 -85 -128 -151 -160 -143 -70 -310 -1 -384 161 -29 64 -39 125 -24 155
6 12 16 39 22 60 18 57 104 140 165 160 88 28 119 28 207 0z m748 -2591 c108
-20 207 -64 312 -142 82 -60 146 -144 204 -265 78 -163 74 4 74 -2972 0 -1751
-3 -2656 -10 -2725 -15 -145 -44 -221 -132 -354 -53 -81 -110 -134 -207 -191
-86 -51 -162 -81 -236 -93 -39 -6 -1045 -10 -2810 -10 -3078 0 -2820 -6 -2982
76 -118 60 -190 118 -246 196 -92 129 -122 200 -137 323 -13 102 -13 5432 0
5560 12 123 41 198 117 309 48 69 69 91 133 141 129 99 211 132 375 150 165
17 5445 15 5545 -3z m-8407 -1144 c123 -47 207 -160 207 -279 0 -123 -89 -235
-220 -279 l-71 -24 -71 23 c-58 19 -83 34 -130 79 -63 60 -88 116 -88 200 0
126 80 240 195 279 80 27 108 27 178 1z m11366 6 c67 -23 82 -32 134 -82 112
-109 117 -275 13 -389 -50 -55 -88 -79 -163 -103 -35 -11 -50 -11 -90 0 -109
30 -179 83 -224 171 -76 151 5 331 177 395 72 27 96 28 153 8z m-13031 -1964
c125 -57 182 -142 182 -270 0 -133 -72 -232 -201 -278 -78 -27 -84 -27 -166
-1 -75 25 -131 69 -171 137 -23 41 -26 56 -26 142 0 87 3 101 27 143 35 59 93
106 166 133 78 30 111 29 189 -6z m14737 6 c110 -44 167 -110 190 -218 30
-144 -45 -279 -183 -332 -85 -33 -96 -33 -192 4 -129 50 -189 135 -190 267 0
134 62 222 191 273 90 36 110 36 184 6z m-13062 -1954 c126 -57 197 -156 197
-273 0 -123 -92 -239 -221 -280 -62 -19 -73 -20 -116 -9 -73 20 -103 37 -161
94 -78 76 -99 165 -67 285 19 74 95 151 180 185 80 32 113 32 188 -2z m11356
12 c67 -23 82 -32 134 -82 80 -78 106 -185 72 -297 -20 -65 -108 -156 -168
-175 -23 -8 -46 -17 -52 -22 -31 -27 -177 18 -242 76 -62 55 -103 139 -103
214 0 108 77 223 175 263 22 9 51 21 65 27 36 15 68 14 119 -4z m-7587 -3766
c75 -40 120 -92 153 -177 31 -82 31 -92 -1 -172 -32 -81 -108 -162 -173 -184
-57 -19 -129 -19 -196 0 -70 21 -152 105 -183 188 -27 72 -27 84 0 164 44 127
154 212 277 213 52 0 73 -5 123 -32z m3899 0 c70 -37 113 -82 146 -155 38 -82
39 -113 9 -190 -50 -125 -152 -203 -265 -203 -86 0 -150 25 -203 77 -53 51
-69 76 -92 144 -22 61 -20 77 14 160 34 85 74 130 150 169 80 42 161 41 241
-2z m-1964 -1673 c83 -35 137 -96 173 -196 25 -69 25 -90 -2 -162 -37 -97
-133 -187 -198 -187 -12 0 -31 -5 -42 -11 -24 -13 -104 1 -171 29 -53 22 -117
97 -144 169 -30 77 -29 93 7 184 35 86 71 127 145 163 61 30 174 35 232 11z"/>
<path d="M11285 11360 l-180 -5 -3 -1744 c-1 -1281 1 -1747 9 -1757 14 -17
414 -21 424 -4 4 6 6 794 7 1752 0 1658 -1 1743 -18 1755 -10 7 -27 12 -38 11
-12 -1 -102 -5 -201 -8z"/>
<path d="M8846 11341 c-14 -15 -271 -752 -293 -836 -2 -11 -9 -29 -13 -40 -11
-25 -129 -369 -140 -410 -4 -16 -18 -57 -30 -90 -39 -106 -259 -754 -321 -945
-33 -102 -67 -203 -75 -224 -13 -32 -62 -180 -165 -486 -7 -19 -16 -44 -20
-55 -18 -45 -92 -262 -98 -290 -5 -16 -16 -45 -25 -63 -32 -62 -30 -62 213
-62 l220 0 20 26 c12 15 21 34 21 42 0 8 59 191 130 406 72 215 147 442 167
504 21 62 40 118 44 124 4 5 26 14 50 19 50 9 1053 12 1120 3 77 -11 76 -8
159 -269 16 -49 65 -196 110 -325 45 -129 94 -273 110 -320 40 -118 64 -183
73 -197 6 -10 65 -13 239 -13 l230 0 -5 38 c-4 33 -33 123 -56 177 -17 41
-296 858 -310 910 -5 17 -14 44 -21 60 -7 17 -16 44 -20 60 -5 17 -29 89 -55
160 -25 72 -50 144 -55 160 -4 17 -38 116 -75 220 -36 105 -75 215 -85 245
-10 30 -78 228 -150 440 -72 212 -135 399 -140 415 -5 17 -35 107 -68 200 -97
280 -122 354 -122 368 0 8 -11 26 -25 41 l-24 26 -249 0 c-232 0 -250 -1 -266
-19z m275 -461 c11 -30 24 -73 29 -95 5 -22 13 -56 18 -75 6 -19 20 -71 32
-115 21 -81 68 -222 299 -902 71 -210 127 -384 123 -387 -3 -3 -236 -6 -519
-6 l-513 0 0 29 c0 16 23 93 50 172 57 161 287 847 319 952 37 119 106 384
116 450 3 21 11 37 16 35 6 -2 20 -28 30 -58z"/>
</g>
</svg>
