<svg width="49" height="48" viewBox="0 0 49 48" fill="none" xmlns="http://www.w3.org/2000/svg">
<circle cx="24.5" cy="24.0001" r="24" fill="white"/>
<g clip-path="url(#clip0_118_634)">
<path d="M24.3344 15.7744C25.8699 15.7744 27.217 15.1706 28.3756 13.9628C29.5341 12.7551 30.1134 11.3507 30.1134 9.74963C30.1134 9.57379 30.0996 9.32392 30.0721 9C29.8698 9.02776 29.718 9.0509 29.6169 9.06941C28.2009 9.27301 26.955 9.97175 25.8791 11.1656C24.8033 12.3594 24.2654 13.6366 24.2654 14.997C24.2654 15.1543 24.2884 15.4135 24.3344 15.7744ZM29.8376 37C30.9318 37 32.1409 36.2458 33.465 34.7372C34.7891 33.2287 35.8005 31.4564 36.4993 29.4204C33.8971 28.0692 32.5961 26.1304 32.5961 23.6039C32.5961 21.4938 33.6489 19.6892 35.7545 18.1899C34.2925 16.3482 32.3616 15.4274 29.9617 15.4274C28.9503 15.4274 28.0262 15.5801 27.1894 15.8855L26.6653 16.0798L25.9619 16.3575C25.5021 16.5333 25.0838 16.6212 24.7068 16.6212C24.4125 16.6212 24.0263 16.5194 23.5482 16.3158L23.0103 16.0937L22.5 15.8855C21.7552 15.5708 20.9552 15.4135 20.1001 15.4135C17.8106 15.4135 15.9716 16.1909 14.5831 17.7457C13.1947 19.3004 12.5005 21.3504 12.5005 23.8954C12.5005 27.4769 13.6131 30.7855 15.8383 33.821C17.383 35.9403 18.7944 37 20.0725 37C20.615 37 21.1529 36.8936 21.6862 36.6807L22.3621 36.4031L22.9 36.2087C23.654 35.9403 24.3482 35.8061 24.9826 35.8061C25.6539 35.8061 26.4262 35.9774 27.2998 36.3198L27.7273 36.4864C28.6192 36.8288 29.3227 37 29.8376 37Z" fill="black"/>
</g>
<defs>
<clipPath id="clip0_118_634">
<rect width="24" height="28" fill="white" transform="translate(12.5 9)"/>
</clipPath>
</defs>
</svg>
