<svg width="14" height="15" viewBox="0 0 14 15" fill="none" xmlns="http://www.w3.org/2000/svg">
<path d="M6.33337 0.697266C9.64537 0.697266 12.3334 3.38527 12.3334 6.69726C12.3334 10.0093 9.64537 12.6973 6.33337 12.6973C3.02137 12.6973 0.333374 10.0093 0.333374 6.69726C0.333374 3.38527 3.02137 0.697266 6.33337 0.697266ZM6.33337 11.3639C8.91171 11.3639 11 9.2756 11 6.69726C11 4.11893 8.91171 2.0306 6.33337 2.0306C3.75504 2.0306 1.66671 4.11893 1.66671 6.69726C1.66671 9.2756 3.75504 11.3639 6.33337 11.3639ZM11.9902 11.4113L13.8758 13.2969L12.933 14.2397L11.0474 12.3541L11.9902 11.4113Z" fill="#0E70FF"/>
</svg>
