<svg width="16" height="18" viewBox="0 0 16 18" fill="none" xmlns="http://www.w3.org/2000/svg">
<path fill-rule="evenodd" clip-rule="evenodd" d="M8.375 3.54933C8.82335 3.28997 9.125 2.80521 9.125 2.25C9.125 1.42157 8.45345 0.75 7.625 0.75C6.79657 0.75 6.125 1.42157 6.125 2.25C6.125 2.80521 6.42665 3.28997 6.875 3.54933V4.5H5.3755C2.88241 4.5 0.875 6.51262 0.875 8.99528V10.5047C0.875 12.9789 2.88994 15 5.3755 15H10.25L15.125 17.2498V8.99528C15.125 6.52109 13.1101 4.5 10.6245 4.5H8.375V3.54933ZM13.625 14.7168V8.99528C13.625 7.34654 12.2787 6 10.6245 6H5.3755C3.71344 6 2.375 7.33844 2.375 8.99528V10.5047C2.375 12.1535 3.72134 13.5 5.3755 13.5H11L13.625 14.7168ZM9.125 9H10.625V10.5H9.125V9ZM5.375 9H6.875V10.5H5.375V9Z" fill="#666666"/>
</svg>
