<svg width="22" height="20" viewBox="0 0 22 20" fill="none" xmlns="http://www.w3.org/2000/svg">
<path d="M19.8853 2.31841H17.99V1.7012C17.99 1.50724 17.913 1.32122 17.7758 1.18405C17.6387 1.04688 17.4527 0.969786 17.2587 0.969727H4.82869C4.73263 0.969722 4.63751 0.988638 4.54876 1.0254C4.46001 1.06215 4.37937 1.11603 4.31144 1.18396C4.24351 1.25188 4.18963 1.33252 4.15287 1.42127C4.1161 1.51002 4.09718 1.60514 4.09718 1.7012V2.31841H2.1149C1.66634 2.31895 1.23632 2.49737 0.919142 2.81455C0.601967 3.13172 0.423543 3.56175 0.423007 4.0103V5.10635C0.411927 5.98459 0.631174 6.85041 1.0589 7.61753C1.48663 8.38465 2.10791 9.0263 2.86085 9.47855C3.51533 9.85609 4.2475 10.0789 5.00134 10.13C5.01747 10.1311 5.0336 10.1317 5.04972 10.1317C5.07636 10.1308 5.10293 10.1283 5.12926 10.1242C5.85473 11.3032 6.91474 12.2395 8.17426 12.8139C8.63495 13.0323 9.02332 13.3783 9.29329 13.8108C9.56326 14.2433 9.70351 14.7442 9.6974 15.254V16.5101C9.69742 16.7351 9.60804 16.9509 9.44893 17.1101C9.28981 17.2692 9.074 17.3587 8.84896 17.3587H7.09482C6.8218 17.3587 6.55996 17.4672 6.36691 17.6602C6.17386 17.8533 6.06541 18.1151 6.06541 18.3881V19.7954H16.0219V18.3879C16.0219 18.1149 15.9134 17.8531 15.7203 17.6601C15.5273 17.4671 15.2654 17.3587 14.9924 17.3587H13.2383C13.0132 17.3587 12.7974 17.2693 12.6382 17.1101C12.4791 16.951 12.3897 16.7352 12.3897 16.5101V15.2539C12.3836 14.7441 12.5238 14.2432 12.7938 13.8107C13.0638 13.3781 13.4522 13.0321 13.9129 12.8137C15.1698 12.2406 16.228 11.3071 16.9535 10.1316C16.9685 10.1316 16.9837 10.1311 16.9988 10.13C17.7525 10.079 18.4846 9.85614 19.1389 9.47855C19.8919 9.02634 20.5133 8.38471 20.9411 7.61759C21.3689 6.85047 21.5882 5.98463 21.5772 5.10635V4.0103C21.5766 3.56175 21.3982 3.13172 21.081 2.81455C20.7639 2.49737 20.3338 2.31895 19.8853 2.31841ZM3.51822 8.34238C2.96433 8.00566 2.5083 7.52973 2.19553 6.96198C1.88276 6.39423 1.72415 5.75446 1.73551 5.10635V4.0103C1.73562 3.90971 1.77562 3.81328 1.84675 3.74215C1.91787 3.67103 2.01431 3.63102 2.1149 3.63091H4.09718V6.48841C4.09775 7.24652 4.22281 7.99938 4.46735 8.71696C4.13468 8.63816 3.81504 8.51201 3.51822 8.34238ZM13.6704 6.81744L12.8717 7.39771C12.7801 7.46424 12.7119 7.55805 12.677 7.6657C12.642 7.77334 12.642 7.88929 12.677 7.99693L12.982 8.9357C13.017 9.04335 13.017 9.15931 12.982 9.26696C12.947 9.37461 12.8789 9.46843 12.7873 9.53496C12.6957 9.6015 12.5854 9.63734 12.4723 9.63734C12.3591 9.63734 12.2488 9.60152 12.1572 9.53499L11.3585 8.95479C11.2669 8.88828 11.1566 8.85246 11.0435 8.85246C10.9303 8.85246 10.82 8.88828 10.7285 8.95479L9.92971 9.53499C9.83813 9.60152 9.72785 9.63734 9.61466 9.63734C9.50147 9.63734 9.39118 9.6015 9.29962 9.53496C9.20805 9.46843 9.13989 9.37461 9.10492 9.26696C9.06995 9.15931 9.06995 9.04335 9.10493 8.9357L9.40996 7.99693C9.44492 7.88928 9.44491 7.77333 9.40993 7.66568C9.37495 7.55804 9.30679 7.46424 9.21522 7.39771L8.417 6.81744C8.32541 6.75091 8.25725 6.6571 8.22226 6.54945C8.18727 6.4418 8.18727 6.32584 8.22224 6.21819C8.25721 6.11053 8.32537 6.01671 8.41694 5.95018C8.50852 5.88364 8.6188 5.8478 8.73199 5.8478H9.71903C9.83222 5.84781 9.9425 5.81198 10.0341 5.74546C10.1257 5.67894 10.1938 5.58513 10.2288 5.47749L10.5339 4.53871C10.5688 4.43106 10.637 4.33725 10.7286 4.27072C10.8202 4.20418 10.9304 4.16835 11.0436 4.16835C11.1568 4.16835 11.2671 4.20418 11.3587 4.27072C11.4502 4.33725 11.5184 4.43106 11.5534 4.53871L11.8584 5.47749C11.8935 5.58511 11.9616 5.67889 12.0532 5.74541C12.1448 5.81193 12.255 5.84777 12.3682 5.8478H13.3554C13.4686 5.84782 13.5788 5.88366 13.6704 5.9502C13.762 6.01674 13.8301 6.11055 13.8651 6.21819C13.9001 6.32584 13.9001 6.44179 13.8651 6.54944C13.8301 6.65708 13.762 6.7509 13.6704 6.81744ZM20.2647 5.10631C20.276 5.75448 20.1173 6.39431 19.8045 6.9621C19.4916 7.52989 19.0355 8.00584 18.4816 8.34256C18.2135 8.49616 17.9265 8.61424 17.6279 8.69386C17.8673 7.98314 17.9896 7.23825 17.9901 6.4883V3.6308H19.8853C19.9859 3.63091 20.0823 3.67092 20.1534 3.74204C20.2246 3.81317 20.2646 3.9096 20.2647 4.01019V5.10631Z" fill="white"/>
</svg>
