<svg width="32" height="33" viewBox="0 0 32 33" fill="none" xmlns="http://www.w3.org/2000/svg">
<path d="M23.2 31H8.8C7.52696 31 6.30606 30.5259 5.40589 29.682C4.50571 28.8381 4 27.6935 4 26.5V5.5C4 4.30653 4.50571 3.16193 5.40589 2.31802C6.30606 1.47411 7.52696 1 8.8 1H19.344C19.7637 1.00166 20.166 1.15788 20.464 1.435L27.536 8.065C27.8316 8.34439 27.9982 8.72149 28 9.115V26.5C28 27.6935 27.4943 28.8381 26.5941 29.682C25.6939 30.5259 24.473 31 23.2 31Z" fill="#4CAF50"/>
<path d="M27.1207 8.99999H21.3885C20.755 8.99999 20.1475 8.77631 19.6996 8.37816C19.2516 7.98001 19 7.44 19 6.87692V1.78156C18.9993 1.62714 19.0503 1.47604 19.1465 1.34745C19.2427 1.21886 19.3797 1.11861 19.5402 1.05943C19.7006 1.00025 19.8772 0.984834 20.0476 1.01513C20.2179 1.04542 20.3743 1.12006 20.4968 1.22956L27.7417 7.66954C27.8649 7.77842 27.9489 7.9174 27.983 8.06882C28.0171 8.22023 27.9997 8.37723 27.9331 8.51986C27.8666 8.66249 27.7538 8.7843 27.6091 8.86979C27.4645 8.95529 27.2945 9.00061 27.1207 8.99999Z" fill="#B9F6CA"/>
<path d="M11.4719 25.9986C11.0264 26.0118 10.5838 25.9328 10.1812 25.7682C9.81946 25.6167 9.51815 25.3762 9.31546 25.0771C9.10077 24.751 8.99203 24.3812 9.00066 24.0065C8.99045 23.6316 9.0993 23.2614 9.31546 22.9359C9.51431 22.6374 9.81717 22.4004 10.1812 22.2583C10.5825 22.089 11.0251 22.0054 11.4719 22.0144C11.6548 21.9952 11.8398 21.9952 12.0228 22.0144C12.229 22.0406 12.4302 22.0908 12.6209 22.1634C12.746 22.2048 12.8513 22.2812 12.9199 22.3803C12.9793 22.4758 13.0066 22.5838 12.9986 22.692C12.9882 22.7929 12.9504 22.8904 12.8885 22.9765C12.8602 23.0201 12.8218 23.0581 12.7758 23.0884C12.7298 23.1187 12.6771 23.1406 12.6209 23.1527C12.5643 23.1757 12.5025 23.1876 12.4399 23.1876C12.3773 23.1876 12.3155 23.1757 12.2589 23.1527C12.0671 23.0738 11.8575 23.0321 11.645 23.0307C11.5086 23.0238 11.3721 23.0419 11.2445 23.084C11.117 23.126 11.0013 23.191 10.9052 23.2747C10.7245 23.4754 10.6349 23.7259 10.6534 23.9794C10.6319 24.2331 10.7218 24.4846 10.9052 24.6841C10.9978 24.7724 11.1126 24.8415 11.2407 24.8861C11.3689 24.9307 11.5071 24.9496 11.645 24.9415H11.9441L12.2589 24.8467C12.3155 24.8237 12.3773 24.8118 12.4399 24.8118C12.5025 24.8118 12.5643 24.8237 12.6209 24.8467C12.6746 24.8597 12.7246 24.8821 12.768 24.9124C12.8113 24.9427 12.8469 24.9803 12.8727 25.0229C12.9414 25.1062 12.9798 25.2053 12.9829 25.3074C12.9968 25.4159 12.9692 25.5254 12.9042 25.6191C12.8355 25.7182 12.7302 25.7946 12.6051 25.836C12.4166 25.9006 12.2217 25.9505 12.0228 25.985L11.4719 25.9986Z" fill="#E8F5E9"/>
<path d="M15.4428 25.985C15.2458 26.005 15.0476 26.005 14.8505 25.985C14.662 25.959 14.4779 25.9002 14.3046 25.8105C14.2444 25.7912 14.1884 25.7572 14.1403 25.7109C14.0922 25.6646 14.0533 25.6071 14.0259 25.5421C13.9914 25.4291 13.9914 25.306 14.0259 25.193C14.0563 25.0796 14.1227 24.9837 14.2117 24.9246C14.2618 24.894 14.3177 24.878 14.3743 24.878C14.431 24.878 14.4868 24.894 14.5369 24.9246C14.6937 24.9994 14.8574 25.0535 15.0247 25.0857C15.1714 25.1048 15.3194 25.1048 15.4661 25.0857C15.5864 25.0967 15.7071 25.0688 15.8145 25.0051C15.847 24.9835 15.8738 24.9521 15.8922 24.9143C15.9106 24.8765 15.9199 24.8337 15.919 24.7903C15.9209 24.7568 15.9155 24.7233 15.9033 24.6929C15.8912 24.6624 15.8726 24.6359 15.8493 24.6158C15.8035 24.5622 15.748 24.5209 15.6867 24.495L14.955 24.3474C14.7153 24.3229 14.4899 24.2045 14.3163 24.0118C14.239 23.9166 14.1787 23.8048 14.1389 23.6828C14.099 23.5607 14.0804 23.4308 14.084 23.3004C14.084 23.0535 14.1533 22.8133 14.2814 22.6158C14.4219 22.4153 14.6064 22.2623 14.8157 22.1728C15.0677 22.0617 15.3357 22.007 15.6054 22.0117C15.7871 21.9961 15.9696 21.9961 16.1513 22.0117C16.315 22.0499 16.4746 22.1084 16.6275 22.1862C16.681 22.2083 16.7296 22.2438 16.7698 22.2902C16.8099 22.3367 16.8407 22.3928 16.8598 22.4547C16.8943 22.5676 16.8943 22.6908 16.8598 22.8037C16.824 22.9144 16.7535 23.0054 16.6623 23.0587C16.6122 23.0893 16.5564 23.1053 16.4997 23.1053C16.443 23.1053 16.3872 23.0893 16.3371 23.0587C16.2092 22.9972 16.0771 22.9478 15.9422 22.9111C15.838 22.8991 15.7329 22.8991 15.6287 22.9111C15.4958 22.9009 15.3632 22.9334 15.2454 23.005C15.2107 23.0249 15.1815 23.0555 15.161 23.0934C15.1405 23.1313 15.1295 23.1751 15.1292 23.2198C15.1292 23.354 15.2105 23.4346 15.3731 23.4749L16.1164 23.6225C16.357 23.6491 16.5843 23.7617 16.7668 23.9447C16.8448 24.0364 16.9057 24.1458 16.9457 24.2658C16.9856 24.3859 17.0038 24.5142 16.9991 24.6427C17.0061 24.8316 16.9714 25.0194 16.8982 25.1884C16.8251 25.3575 16.7159 25.5023 16.581 25.6092C16.2487 25.8782 15.8479 26.0106 15.4428 25.985Z" fill="#E8F5E9"/>
<path d="M19.9834 25.9994C19.8113 26.0027 19.6426 25.9515 19.5017 25.8531C19.3608 25.7548 19.255 25.6144 19.1996 25.4523L18.0719 22.8942C18.0246 22.7984 18 22.6931 18 22.5864C18 22.4797 18.0246 22.3744 18.0719 22.2786C18.1374 22.1817 18.2286 22.1047 18.3354 22.0564C18.4423 22.0081 18.5606 21.9903 18.677 22.005C18.8204 21.9977 18.9618 22.0413 19.0758 22.1281C19.2154 22.2407 19.3163 22.3937 19.3646 22.5659L20.0247 24.2621L20.726 22.5522C20.7791 22.3895 20.8739 22.2433 21.0011 22.1281C21.1307 22.0412 21.285 21.9981 21.4411 22.005C21.5759 21.9994 21.708 22.0432 21.8124 22.1281C21.913 22.21 21.9772 22.3279 21.9912 22.4565C22.0148 22.6059 21.9907 22.759 21.9224 22.8942L20.7673 25.4659C20.7114 25.6267 20.605 25.7653 20.4639 25.8614C20.3228 25.9575 20.1543 26.0058 19.9834 25.9994Z" fill="#E8F5E9"/>
</svg>
