<svg width="16" height="16" viewBox="0 0 16 16" fill="none" xmlns="http://www.w3.org/2000/svg">
<g clip-path="url(#clip0_5419_6367)">
<path fill-rule="evenodd" clip-rule="evenodd" d="M8.66671 2.00065C8.66671 1.63246 8.36824 1.33398 8.00004 1.33398C7.63185 1.33398 7.33337 1.63246 7.33337 2.00065V8.39118L5.13811 6.19591C4.87776 5.93556 4.45565 5.93556 4.1953 6.19591C3.93495 6.45626 3.93495 6.87837 4.1953 7.13872L7.52816 10.4716C7.52977 10.4732 7.53139 10.4748 7.53301 10.4764C7.59591 10.5382 7.66801 10.5849 7.74485 10.6167C7.82287 10.6491 7.90837 10.6671 7.99804 10.6673H8.00004H8.00204C8.18311 10.6668 8.34724 10.5941 8.46704 10.4764C8.46871 10.4748 8.47031 10.4732 8.47191 10.4716L11.8048 7.13872C12.0651 6.87837 12.0651 6.45626 11.8048 6.19591C11.5444 5.93556 11.1223 5.93556 10.862 6.19591L8.66671 8.39118V2.00065ZM2.00004 9.33398C2.36823 9.33398 2.66671 9.63245 2.66671 10.0007V12.6673C2.66671 12.8441 2.73695 13.0137 2.86197 13.1387C2.98699 13.2637 3.15656 13.334 3.33337 13.334H12.6667C12.8435 13.334 13.0131 13.2637 13.1381 13.1387C13.2631 13.0137 13.3334 12.8441 13.3334 12.6673V10.0007C13.3334 9.63245 13.6318 9.33398 14 9.33398C14.3682 9.33398 14.6667 9.63245 14.6667 10.0007V12.6673C14.6667 13.1978 14.456 13.7065 14.0809 14.0815C13.7058 14.4566 13.1972 14.6673 12.6667 14.6673H3.33337C2.80294 14.6673 2.29423 14.4566 1.91916 14.0815C1.54409 13.7065 1.33337 13.1978 1.33337 12.6673V10.0007C1.33337 9.63245 1.63185 9.33398 2.00004 9.33398Z" fill="#0E70FF"/>
</g>
<defs>
<clipPath id="clip0_5419_6367">
<rect width="13.3333" height="13.3333" fill="white" transform="translate(1.33337 1.33398)"/>
</clipPath>
</defs>
</svg>
