<svg width="17" height="16" viewBox="0 0 17 16" fill="none" xmlns="http://www.w3.org/2000/svg">
<path fill-rule="evenodd" clip-rule="evenodd" d="M2.6435 8.70834H3.70883C3.70883 8.70834 5.35217 2.75622 5.69146 1.43872C5.80196 1.01018 6.14904 0.915967 6.375 0.916676C6.60096 0.917384 6.96008 1.07534 7.04579 1.44084C7.45733 3.18759 9.24871 11.2923 9.24871 11.2923C9.24871 11.2923 10.3799 6.72997 10.625 5.70288C10.6965 5.40184 11.0047 5.16668 11.3333 5.16668C11.662 5.16668 11.946 5.40963 12.0417 5.66747C12.2627 6.26318 13.2281 8.70409 13.2295 8.70834H14.3565C14.6016 8.28476 15.0592 8.00001 15.5833 8.00001C16.3653 8.00001 17 8.63468 17 9.41668C17 10.1987 16.3653 10.8333 15.5833 10.8333C15.0585 10.8333 14.6002 10.5472 14.3551 10.1229C13.69 10.1222 13.0404 10.1229 12.75 10.125C12.3937 10.1278 12.2017 9.9203 12.0927 9.67947L11.4892 8.17214C11.4892 8.17214 10.1943 13.3904 9.89542 14.5464C9.78704 14.9679 9.43783 15.0862 9.20833 15.0833C8.97883 15.0805 8.60837 14.9431 8.517 14.5287C8.12813 12.7671 7.04296 7.89234 6.30487 4.57451C6.30487 4.57451 5.20342 8.65734 4.93354 9.60297C4.84146 9.92455 4.62825 10.1208 4.25 10.125H2.6435C2.39842 10.5486 1.94083 10.8333 1.41667 10.8333C0.634667 10.8333 0 10.1987 0 9.41668C0 8.63468 0.634667 8.00001 1.41667 8.00001C1.94083 8.00001 2.39842 8.28476 2.6435 8.70834Z" fill="#8f9295"/>
</svg>
