<svg width="17" height="18" viewBox="0 0 17 18" fill="none" xmlns="http://www.w3.org/2000/svg">
<path d="M16.9632 0.529765C16.6706 0.509932 16.3845 0.500015 16.1032 0.500015C10.0116 0.500015 6.54287 5.14456 5.28133 8.88172L8.62962 12.23C12.4745 10.853 17 7.51252 17 1.48602C17 1.17435 16.988 0.855599 16.9632 0.529765ZM8.97529 10.5725L6.93317 8.53039C7.79804 6.50527 10.256 2.19435 15.5741 1.92872C15.3963 6.01935 12.7117 8.96389 8.97529 10.5725ZM12.8506 11.6619C12.4631 11.9261 12.0785 12.1648 11.6974 12.3781C11.565 13.0092 11.2285 13.6828 10.7405 14.2566C10.739 13.8486 10.6257 13.4377 10.4267 13.0255C10.076 13.1848 9.74242 13.3216 9.42508 13.442C9.89258 14.6525 9.41658 15.5464 8.77696 16.3844C9.69496 16.315 10.6583 15.8659 11.4176 15.1058C12.2357 14.2877 12.8109 13.1062 12.8506 11.6619ZM4.47808 7.07972C4.06796 6.88139 3.65783 6.76947 3.25125 6.76735C3.82004 6.28497 4.48658 5.95064 5.11133 5.81464C5.33375 5.42364 5.58379 5.0376 5.84729 4.65793C4.403 4.69689 3.22079 5.27206 2.40196 6.09089C1.64333 6.84951 1.19354 7.81427 1.12413 8.73156C1.96279 8.09122 2.85671 7.61522 4.06725 8.08414C4.18979 7.75051 4.3265 7.41547 4.47808 7.07972ZM9.95917 7.54935C9.68221 7.27239 9.68221 6.82472 9.95917 6.54777C10.2361 6.27081 10.6838 6.27081 10.9607 6.54777C11.2377 6.82543 11.2377 7.2731 10.9607 7.55006C10.6838 7.82701 10.2354 7.82631 9.95917 7.54935ZM13.4647 4.04239C12.9122 3.48989 12.0147 3.48989 11.4615 4.04239C10.9083 4.5956 10.9083 5.49376 11.4615 6.04627C12.0147 6.59947 12.9122 6.59947 13.4654 6.04627C14.0179 5.49376 14.0179 4.59631 13.4647 4.04239ZM12.1132 5.39602C11.9198 5.20264 11.9198 4.88743 12.1132 4.69477C12.3052 4.50139 12.6211 4.50139 12.8145 4.69477C13.0071 4.88743 13.0064 5.20264 12.8145 5.39602C12.6204 5.58868 12.3059 5.58868 12.1132 5.39602ZM7.33408 12.9398C6.27725 15.6385 3.22362 17.3371 0 17.5C0.155125 14.462 1.88204 11.3545 4.70333 10.3083L5.27354 10.8792C2.20575 12.8307 1.97767 14.666 1.96917 15.5365C2.86733 15.5259 4.84075 15.2928 6.77025 12.3745L7.33408 12.9398Z" fill="#8f9295"/>
</svg>
