<svg width="17" height="16" viewBox="0 0 17 16" fill="none" xmlns="http://www.w3.org/2000/svg">
<path d="M8 15.5C3.85786 15.5 0.5 12.1421 0.5 8.00003C0.5 3.85789 3.85786 0.500031 8 0.500031C10.4535 0.500031 12.6318 1.67812 14.0002 3.49945L11.9682 3.49951C10.9105 2.56627 9.52138 2.00003 8 2.00003C4.68629 2.00003 2 4.68632 2 8.00003C2 11.3138 4.68629 14 8 14C9.52175 14 10.9112 13.4335 11.9689 12.4999H14.0007C12.6324 14.3216 10.4538 15.5 8 15.5ZM13.25 11V8.75003H7.25V7.25003H13.25V5.00003L17 8.00003L13.25 11Z" fill="#8f9295"/>
</svg>
