<svg width="16" height="17" viewBox="0 0 16 17" fill="none" xmlns="http://www.w3.org/2000/svg">
<path fill-rule="evenodd" clip-rule="evenodd" d="M12.249 3.21666C12.3681 3.09753 12.5296 3.0306 12.6981 3.0306C12.8666 3.0306 13.0282 3.09753 13.1473 3.21666C13.2664 3.33579 13.3334 3.49737 13.3334 3.66585C13.3334 3.83433 13.2664 3.99591 13.1473 4.11504L7.44747 9.81487L6.24963 10.1143L6.54909 8.91653L12.249 3.21666ZM12.6981 1.69727C12.176 1.69727 11.6753 1.90467 11.3061 2.27385L5.47571 8.10428C5.39027 8.18972 5.32966 8.29677 5.30035 8.414L4.68663 10.8689C4.62983 11.0961 4.69639 11.3364 4.86198 11.502C5.02757 11.6676 5.26789 11.7341 5.49508 11.6773L7.94999 11.0636C8.06724 11.0343 8.17424 10.9737 8.25971 10.8883L14.0901 5.05785C14.4593 4.68867 14.6667 4.18795 14.6667 3.66585C14.6667 3.14375 14.4593 2.64303 14.0901 2.27385C13.721 1.90467 13.2202 1.69727 12.6981 1.69727ZM3.18523 3.0306C2.69409 3.0306 2.22306 3.22571 1.87577 3.57299C1.52848 3.92029 1.33337 4.39131 1.33337 4.88245V13.1787C1.33337 13.6699 1.52848 14.1409 1.87577 14.4882C2.22306 14.8355 2.69408 15.0306 3.18523 15.0306H11.4815C11.9726 15.0306 12.4437 14.8355 12.791 14.4882C13.1382 14.1409 13.3334 13.6699 13.3334 13.1787V9.0306C13.3334 8.6624 13.0349 8.36393 12.6667 8.36393C12.2985 8.36393 12 8.6624 12 9.0306V13.1787C12 13.3163 11.9454 13.4481 11.8482 13.5454C11.7509 13.6427 11.619 13.6973 11.4815 13.6973H3.18523C3.04771 13.6973 2.91582 13.6427 2.81858 13.5454C2.72133 13.4481 2.66671 13.3163 2.66671 13.1787V4.88245C2.66671 4.74493 2.72133 4.61305 2.81858 4.51581C2.91582 4.41856 3.04771 4.36393 3.18523 4.36393H7.33337C7.70157 4.36393 8.00004 4.06545 8.00004 3.69727C8.00004 3.32908 7.70157 3.0306 7.33337 3.0306H3.18523Z" fill="#0E70FF"/>
</svg>
