<svg width="32" height="33" viewBox="0 0 32 33" fill="none" xmlns="http://www.w3.org/2000/svg">
<g clip-path="url(#clip0_5239_7763)">
<path d="M6.66667 2.94964C5.19387 2.94964 4 4.14964 4 5.61631V16.283V21.6163V29.6163C4 31.083 5.19387 32.283 6.66667 32.283H25.3333C26.8067 32.283 28 31.083 28 29.6163V21.6163V16.283V10.9496L20 2.94964H6.66667Z" fill="#C0392B"/>
<path d="M6.66667 1.6163C5.19387 1.6163 4 2.8163 4 4.28297V14.9496V20.283V28.283C4 29.7496 5.19387 30.9496 6.66667 30.9496H25.3333C26.8067 30.9496 28 29.7496 28 28.283V20.283V14.9496V9.6163L20 1.6163H6.66667Z" fill="#E74C3C"/>
<path d="M28 9.6163L20 1.6163V6.94964C20 8.4163 21.1933 9.6163 22.6667 9.6163H28Z" fill="#C0392B"/>
<path d="M25.4823 14.9503H25.0957C24.9757 15.0836 24.2943 16.017 23.9997 16.2836C23.9197 16.417 23.7997 16.5502 23.7317 16.5502C22.741 17.7502 20.6343 19.7503 19.3703 20.817C19.205 20.9503 19.045 21.0836 19.0157 21.0836C18.9277 21.2169 18.085 21.7502 17.7063 22.0169C16.4997 22.8169 15.0837 23.4836 13.9837 23.7503C11.8129 24.2836 10.1191 24.1503 7.92019 23.0836C7.25566 22.8169 6.30886 22.2836 5.78979 21.8836C5.28046 21.4836 5.33419 21.4837 5.33499 22.1503V22.817L5.67873 22.9503C6.11966 23.217 7.07139 23.7502 7.69193 24.0169C8.16473 24.2835 8.31206 24.4169 8.04753 24.4169C7.80379 24.2836 6.42059 24.2836 5.88913 24.4169H5.35579C5.34353 24.4169 5.33353 24.6836 5.33353 24.9503V25.4837H5.51126C6.27606 25.217 7.91753 25.2169 8.68166 25.3502C9.58139 25.4835 10.2145 25.6169 10.9749 26.0169C12.4257 26.6835 13.629 28.0169 14.153 29.3502L14.2597 29.617H14.8463H15.433L15.401 29.4837C15.213 28.6837 14.685 27.7503 14.0317 27.0836C13.6023 26.5503 12.8441 26.0169 12.5453 25.7503H12.4445C12.3959 25.6169 11.8891 25.3502 11.6726 25.3502C11.5494 25.2169 11.449 25.2169 11.449 25.2169C11.449 25.0836 11.5423 25.0836 11.6563 25.2169C11.941 25.2169 13.0874 25.0836 13.6063 24.9503C15.0437 24.6836 16.4037 24.1502 17.7783 23.3502C18.2717 23.0835 19.3917 22.1502 19.8397 21.8836C20.173 21.4836 20.2797 21.4836 20.1437 21.617C20.0957 21.7503 20.0037 21.8835 19.937 22.0169C19.8717 22.1502 19.757 22.2836 19.6837 22.4169C18.6463 24.0169 17.981 26.017 17.801 28.2836C17.7757 28.6836 17.7543 29.0836 17.7543 29.2169V29.617H20.8637H23.973L23.8717 29.4837C23.3117 28.6837 22.617 26.9503 22.3837 25.7503C22.1917 24.8169 22.1343 23.3502 22.2543 22.5502C22.6037 20.4169 23.7943 18.5502 25.8397 17.3502C26.0503 17.2169 26.3223 17.0836 26.4437 16.9503L26.6663 16.817V16.4169C26.6663 16.1503 26.6503 15.8836 26.6303 15.8836C26.145 16.1502 25.065 16.8169 24.569 17.0836C24.3037 17.3503 24.2877 17.3503 24.537 17.0836C24.8943 16.6836 25.5103 16.0169 26.165 15.2169L26.4703 14.9503H25.8023H25.4823Z" fill="#ECF0F1"/>
<path d="M11.582 12.4283C11.582 12.6723 11.526 12.8963 11.414 13.1003C11.302 13.3003 11.13 13.4623 10.898 13.5863C10.666 13.7103 10.378 13.7723 10.034 13.7723H9.398V15.2843H8.372V11.0723H10.034C10.37 11.0723 10.654 11.1303 10.886 11.2463C11.118 11.3623 11.292 11.5223 11.408 11.7263C11.524 11.9303 11.582 12.1643 11.582 12.4283ZM9.956 12.9563C10.152 12.9563 10.298 12.9103 10.394 12.8183C10.49 12.7263 10.538 12.5963 10.538 12.4283C10.538 12.2603 10.49 12.1303 10.394 12.0383C10.298 11.9463 10.152 11.9003 9.956 11.9003H9.398V12.9563H9.956ZM13.6941 11.0723C14.1381 11.0723 14.5261 11.1603 14.8581 11.3363C15.1901 11.5123 15.4461 11.7603 15.6261 12.0803C15.8101 12.3963 15.9021 12.7623 15.9021 13.1783C15.9021 13.5903 15.8101 13.9563 15.6261 14.2763C15.4461 14.5963 15.1881 14.8443 14.8521 15.0203C14.5201 15.1963 14.1341 15.2843 13.6941 15.2843H12.1161V11.0723H13.6941ZM13.6281 14.3963C14.0161 14.3963 14.3181 14.2903 14.5341 14.0783C14.7501 13.8663 14.8581 13.5663 14.8581 13.1783C14.8581 12.7903 14.7501 12.4883 14.5341 12.2723C14.3181 12.0563 14.0161 11.9483 13.6281 11.9483H13.1421V14.3963H13.6281ZM19.2175 11.0723V11.8943H17.5015V12.7823H18.7855V13.5803H17.5015V15.2843H16.4755V11.0723H19.2175Z" fill="white"/>
</g>
<defs>
<clipPath id="clip0_5239_7763">
<rect width="32" height="32" fill="white" transform="translate(0 0.284271)"/>
</clipPath>
</defs>
</svg>
