<svg width="49" height="48" viewBox="0 0 49 48" fill="none" xmlns="http://www.w3.org/2000/svg">
<g clip-path="url(#clip0_127_891)">
<path d="M24.5 48.0002C37.7548 48.0002 48.5 37.255 48.5 24.0002C48.5 10.7453 37.7548 0.000167847 24.5 0.000167847C11.2452 0.000167847 0.5 10.7453 0.5 24.0002C0.5 37.255 11.2452 48.0002 24.5 48.0002Z" fill="#3C5A9A"/>
<path d="M32.3037 7.36685H26.9871C23.8321 7.36685 20.3228 8.69382 20.3228 13.2672C20.3382 14.8607 20.3228 16.3869 20.3228 18.1044H16.6729V23.9126H20.4358V40.6333H27.3503V23.8022H31.9141L32.327 18.0881H27.2311C27.2311 18.0881 27.2425 15.5462 27.2311 14.8081C27.2311 13.0008 29.1117 13.1043 29.2248 13.1043C30.1197 13.1043 31.8597 13.1069 32.3063 13.1043V7.36685H32.3037Z" fill="white"/>
</g>
<defs>
<clipPath id="clip0_127_891">
<rect width="48" height="48" fill="white" transform="translate(0.5 0.00012207)"/>
</clipPath>
</defs>
</svg>
