<svg width="49" height="48" viewBox="0 0 49 48" fill="none" xmlns="http://www.w3.org/2000/svg">
<g clip-path="url(#clip0_30_75)">
<path d="M24.5365 48.0001C37.8116 48.0001 48.5731 37.255 48.5731 24.0001C48.5731 10.7453 37.8116 0.000137329 24.5365 0.000137329C11.2615 0.000137329 0.5 10.7453 0.5 24.0001C0.5 37.255 11.2615 48.0001 24.5365 48.0001Z" fill="#E0E0E0"/>
<path d="M24.5365 47.2706C37.6097 47.2706 48.2077 36.6888 48.2077 23.6354C48.2077 10.582 37.6097 0.000137329 24.5365 0.000137329C11.4632 0.000137329 0.865234 10.582 0.865234 23.6354C0.865234 36.6888 11.4632 47.2706 24.5365 47.2706Z" fill="white"/>
<mask id="mask0_30_75" style="mask-type:luminance" maskUnits="userSpaceOnUse" x="8" y="7" width="33" height="33">
<path d="M39.879 20.8633H24.9018V27.0639H33.5228C32.7191 31.0031 29.3584 33.2645 24.9018 33.2645C19.6415 33.2645 15.4041 29.0335 15.4041 23.7813C15.4041 18.529 19.6415 14.298 24.9018 14.298C27.1666 14.298 29.2123 15.1004 30.8196 16.4135L35.4954 11.7448C32.6461 9.26453 28.9931 7.73262 24.9018 7.73262C15.9886 7.73262 8.82874 14.8816 8.82874 23.7813C8.82874 32.6809 15.9886 39.8299 24.9018 39.8299C32.9383 39.8299 40.2443 33.994 40.2443 23.7813C40.2443 22.8329 40.0981 21.8116 39.879 20.8633Z" fill="white"/>
</mask>
<g mask="url(#mask0_30_75)">
<path d="M7.36755 33.2645V14.298L19.7876 23.7813L7.36755 33.2645Z" fill="#FBBC05"/>
</g>
<mask id="mask1_30_75" style="mask-type:luminance" maskUnits="userSpaceOnUse" x="8" y="7" width="33" height="33">
<path d="M39.879 20.8633H24.9018V27.0639H33.5228C32.7191 31.0031 29.3584 33.2645 24.9018 33.2645C19.6415 33.2645 15.4041 29.0335 15.4041 23.7813C15.4041 18.529 19.6415 14.298 24.9018 14.298C27.1666 14.298 29.2123 15.1004 30.8196 16.4135L35.4954 11.7448C32.6461 9.26453 28.9931 7.73262 24.9018 7.73262C15.9886 7.73262 8.82874 14.8816 8.82874 23.7813C8.82874 32.6809 15.9886 39.8299 24.9018 39.8299C32.9383 39.8299 40.2443 33.994 40.2443 23.7813C40.2443 22.8329 40.0981 21.8116 39.879 20.8633Z" fill="white"/>
</mask>
<g mask="url(#mask1_30_75)">
<path d="M7.36755 14.298L19.7876 23.7812L24.9018 19.3314L42.436 16.4864V6.27365H7.36755V14.298Z" fill="#EA4335"/>
</g>
<mask id="mask2_30_75" style="mask-type:luminance" maskUnits="userSpaceOnUse" x="8" y="7" width="33" height="33">
<path d="M39.879 20.8633H24.9018V27.0639H33.5228C32.7191 31.0031 29.3584 33.2645 24.9018 33.2645C19.6415 33.2645 15.4041 29.0335 15.4041 23.7813C15.4041 18.529 19.6415 14.298 24.9018 14.298C27.1666 14.298 29.2123 15.1004 30.8196 16.4135L35.4954 11.7448C32.6461 9.26453 28.9931 7.73262 24.9018 7.73262C15.9886 7.73262 8.82874 14.8816 8.82874 23.7813C8.82874 32.6809 15.9886 39.8299 24.9018 39.8299C32.9383 39.8299 40.2443 33.994 40.2443 23.7813C40.2443 22.8329 40.0981 21.8116 39.879 20.8633Z" fill="white"/>
</mask>
<g mask="url(#mask2_30_75)">
<path d="M7.36755 33.2645L29.2854 16.4864L35.057 17.2159L42.436 6.27365V41.2888H7.36755V33.2645Z" fill="#34A853"/>
</g>
<mask id="mask3_30_75" style="mask-type:luminance" maskUnits="userSpaceOnUse" x="8" y="7" width="33" height="33">
<path d="M39.879 20.8633H24.9018V27.0639H33.5228C32.7191 31.0031 29.3584 33.2645 24.9018 33.2645C19.6415 33.2645 15.4041 29.0335 15.4041 23.7813C15.4041 18.529 19.6415 14.298 24.9018 14.298C27.1666 14.298 29.2123 15.1004 30.8196 16.4135L35.4954 11.7448C32.6461 9.26453 28.9931 7.73262 24.9018 7.73262C15.9886 7.73262 8.82874 14.8816 8.82874 23.7813C8.82874 32.6809 15.9886 39.8299 24.9018 39.8299C32.9383 39.8299 40.2443 33.994 40.2443 23.7813C40.2443 22.8329 40.0981 21.8116 39.879 20.8633Z" fill="white"/>
</mask>
<g mask="url(#mask3_30_75)">
<path d="M42.436 41.2889L19.7876 23.7813L16.8652 21.5928L42.436 14.298V41.2889Z" fill="#4285F4"/>
</g>
</g>
<defs>
<clipPath id="clip0_30_75">
<rect width="48" height="48" fill="white" transform="translate(0.5 0.00012207)"/>
</clipPath>
</defs>
</svg>
