<svg width="45" height="44" viewBox="0 0 45 44" fill="none" xmlns="http://www.w3.org/2000/svg">
<rect x="1.32098" y="0.678892" width="42.642" height="42.642" rx="21.321" fill="white"/>
<rect x="1.32098" y="0.678892" width="42.642" height="42.642" rx="21.321" stroke="#D9E1EC" stroke-width="0.814815"/>
<path d="M31.1486 22.1949C31.1486 21.6227 31.0979 21.0795 31.011 20.5508H22.8267V23.8173H27.5128C27.3027 24.8892 26.6871 25.7946 25.7745 26.4102V28.583H28.5702C30.2071 27.0693 31.1486 24.8385 31.1486 22.1949Z" fill="#4285F4"/>
<path d="M22.8266 30.691C25.1733 30.691 27.1361 29.9087 28.5702 28.5833L25.7744 26.4105C24.9922 26.9319 24 27.2506 22.8266 27.2506C20.5596 27.2506 18.6403 25.7224 17.9522 23.6582H15.0696V25.8962C16.4964 28.7354 19.4297 30.691 22.8266 30.691Z" fill="#34A853"/>
<path d="M17.9522 23.6587C17.7711 23.1373 17.677 22.5796 17.677 22.0001C17.677 21.4207 17.7784 20.863 17.9522 20.3415V18.1035H15.0696C14.4757 19.2768 14.1353 20.595 14.1353 22.0001C14.1353 23.4052 14.4757 24.7234 15.0696 25.8968L17.9522 23.6587Z" fill="#FBBC05"/>
<path d="M22.8266 16.7489C24.1086 16.7489 25.253 17.1907 26.1583 18.0526L28.6353 15.5756C27.1361 14.1705 25.1733 13.3086 22.8266 13.3086C19.4297 13.3086 16.4964 15.2642 15.0696 18.1033L17.9522 20.3414C18.6403 18.2772 20.5596 16.7489 22.8266 16.7489Z" fill="#EA4335"/>
</svg>
