<svg width="92" height="91" viewBox="0 0 92 91" fill="none" xmlns="http://www.w3.org/2000/svg">
<path fill-rule="evenodd" clip-rule="evenodd" d="M11.8 33.0873C12.779 26.126 15.7487 20.6624 20.0405 16.9191C24.3999 13.1169 30.4695 10.7882 38.08 10.7882C52.5844 10.7882 61.5214 21.1416 63.7743 31.0427C64.9112 36.0404 64.3215 40.2115 62.7612 42.9758C61.3256 45.5189 58.7984 47.4011 54.4982 47.6575C50.3178 47.9067 47.8184 46.3244 46.1854 44.2258C44.3706 41.8934 43.48 38.6673 43.48 35.9606C43.48 32.9815 41.0622 30.5665 38.08 30.5665C35.0977 30.5665 32.68 32.9815 32.68 35.9606C32.68 40.6258 34.1215 46.3003 37.6581 50.8458C41.3762 55.6246 47.2467 58.8973 55.1418 58.4263C62.9016 57.9634 68.8344 54.1818 72.1688 48.2742C75.3785 42.5878 75.8688 35.5213 74.3057 28.6519C71.1586 14.819 58.5683 0 38.08 0C28.1941 0 19.5038 3.06537 12.9372 8.79272C6.37163 14.5192 2.27553 22.6055 1.04536 32.0265L1 32.3738V77H11.8V33.0873Z" fill="#F59B14"/>
<path fill-rule="evenodd" clip-rule="evenodd" d="M48.8801 36.6803C48.8801 30.5086 43.6194 24.9512 36.5412 26.0118C32.7727 26.5765 30.5079 28.4051 29.2173 30.9045C27.8265 33.5977 27.3043 37.6326 28.416 42.7228C30.531 52.4055 39.2519 62.2123 53.9201 62.2123C69.2046 62.2123 80.2001 51.6762 80.2001 40.2764H91.0001C91.0001 59.0643 73.6286 73.0005 53.9201 73.0005C33.5958 73.0005 20.9333 59.0733 17.8643 45.0225C16.3841 38.2453 16.7618 31.4919 19.619 25.9589C22.5763 20.232 27.9075 16.3966 34.939 15.343C49.4607 13.167 59.6801 24.8705 59.6801 36.6803C59.6801 39.6597 57.2627 42.0744 54.2801 42.0744C51.2978 42.0744 48.8801 39.6597 48.8801 36.6803Z" fill="#0E70FF"/>
</svg>
