<svg width="14" height="14" viewBox="0 0 14 14" fill="none" xmlns="http://www.w3.org/2000/svg">
<path d="M11.2425 9.12153L10.1819 8.06088L11.2425 7.00023C12.4141 5.82866 12.4141 3.92916 11.2425 2.75759C10.0709 1.58602 8.17142 1.58602 6.99985 2.75759L5.9392 3.81825L4.87854 2.75759L5.9392 1.69693C7.69652 -0.0604344 10.5458 -0.0604344 12.3032 1.69693C14.0605 3.45429 14.0605 6.30356 12.3032 8.06088L11.2425 9.12153ZM9.12115 11.2429L8.0605 12.3036C6.30317 14.0609 3.45392 14.0609 1.69656 12.3036C-0.0608006 10.5462 -0.0608006 7.69691 1.69656 5.93958L2.75722 4.87891L3.81788 5.93958L2.75722 7.00023C1.58564 8.17181 1.58564 10.0713 2.75722 11.2429C3.92879 12.4144 5.82827 12.4144 6.99985 11.2429L8.0605 10.1822L9.12115 11.2429ZM9.12115 3.81825L10.1819 4.87891L4.87854 10.1822L3.81788 9.12153L9.12115 3.81825Z" fill="#0E70FF"/>
</svg>
