<svg width="48" height="47" viewBox="0 0 48 47" fill="none" xmlns="http://www.w3.org/2000/svg">
<g clip-path="url(#clip0_118_617)">
<path d="M24 0.000198364C11.0212 0.000198364 0.5 10.5214 0.5 23.5002C0.5 36.4789 11.0212 47.0001 24 47.0001C36.9787 47.0001 47.5 36.4789 47.5 23.5002C47.4999 10.5214 36.9785 0.000198364 24 0.000198364ZM17.7301 34.8613H12.5705V18.1919H17.7301V34.8613ZM15.1257 16.009C13.4406 16.009 12.0746 14.6318 12.0746 12.9332C12.0746 11.2344 13.4408 9.85729 15.1257 9.85729C16.8106 9.85729 18.1767 11.2344 18.1767 12.9332C18.1768 14.6319 16.8107 16.009 15.1257 16.009ZM37.0659 34.8613H31.9313V26.1113C31.9313 23.7114 31.0197 22.3718 29.122 22.3718C27.0568 22.3718 25.9778 23.767 25.9778 26.1113V34.8613H21.0291V18.1919H25.9778V20.437C25.9778 20.437 27.4664 17.6835 31.001 17.6835C34.5357 17.6835 37.066 19.8417 37.066 24.3065L37.0659 34.8613Z" fill="url(#paint0_linear_118_617)"/>
</g>
<defs>
<linearGradient id="paint0_linear_118_617" x1="7.38297" y1="6.88317" x2="40.6169" y2="40.1171" gradientUnits="userSpaceOnUse">
<stop stop-color="#2489BE"/>
<stop offset="1" stop-color="#0575B3"/>
</linearGradient>
<clipPath id="clip0_118_617">
<rect width="47" height="47" fill="white" transform="translate(0.5 0.00012207)"/>
</clipPath>
</defs>
</svg>
