<svg width="25" height="24" viewBox="0 0 25 24" fill="none" xmlns="http://www.w3.org/2000/svg">
<path d="M18.5237 20.7891H6.43581C6.13446 20.7891 5.84545 20.9088 5.63236 21.1219C5.41927 21.335 5.29956 21.624 5.29956 21.9253V23.0624C5.29955 23.1074 5.30838 23.1518 5.32556 23.1934C5.34275 23.2349 5.36794 23.2726 5.3997 23.3044C5.43146 23.3361 5.46917 23.3613 5.51068 23.3785C5.55218 23.3957 5.59667 23.4046 5.6416 23.4046H19.3178C19.4086 23.4046 19.4956 23.3685 19.5598 23.3044C19.624 23.2402 19.66 23.1532 19.66 23.0624V21.9255C19.66 21.7762 19.6306 21.6285 19.5735 21.4906C19.5164 21.3527 19.4328 21.2274 19.3272 21.1219C19.2217 21.0164 19.0965 20.9327 18.9586 20.8756C18.8207 20.8184 18.6729 20.7891 18.5237 20.7891Z" fill="white"/>
<path d="M21.3853 2.31841H19.49V1.7012C19.49 1.50724 19.413 1.32122 19.2758 1.18405C19.1387 1.04688 18.9527 0.969786 18.7587 0.969727H6.32869C6.23263 0.969722 6.13751 0.988638 6.04876 1.0254C5.96001 1.06215 5.87937 1.11603 5.81144 1.18396C5.74351 1.25188 5.68963 1.33252 5.65287 1.42127C5.6161 1.51002 5.59718 1.60514 5.59718 1.7012V2.31841H3.6149C3.16634 2.31895 2.73632 2.49737 2.41914 2.81455C2.10197 3.13172 1.92354 3.56175 1.92301 4.0103V5.10635C1.91193 5.98459 2.13117 6.85041 2.5589 7.61753C2.98663 8.38465 3.60791 9.0263 4.36085 9.47855C5.01533 9.85609 5.7475 10.0789 6.50134 10.13C6.51747 10.1311 6.5336 10.1317 6.54972 10.1317C6.57636 10.1308 6.60293 10.1283 6.62926 10.1242C7.35473 11.3032 8.41474 12.2395 9.67426 12.8139C10.1349 13.0323 10.5233 13.3783 10.7933 13.8108C11.0633 14.2433 11.2035 14.7442 11.1974 15.254V16.5101C11.1974 16.7351 11.108 16.9509 10.9489 17.1101C10.7898 17.2692 10.574 17.3587 10.349 17.3587H8.59482C8.3218 17.3587 8.05996 17.4672 7.86691 17.6602C7.67386 17.8533 7.56541 18.1151 7.56541 18.3881V19.7954H17.5219V18.3879C17.5219 18.1149 17.4134 17.8531 17.2203 17.6601C17.0273 17.4671 16.7654 17.3587 16.4924 17.3587H14.7383C14.5132 17.3587 14.2974 17.2693 14.1382 17.1101C13.9791 16.951 13.8897 16.7352 13.8897 16.5101V15.2539C13.8836 14.7441 14.0238 14.2432 14.2938 13.8107C14.5638 13.3781 14.9522 13.0321 15.4129 12.8137C16.6698 12.2406 17.728 11.3071 18.4535 10.1316C18.4685 10.1316 18.4837 10.1311 18.4988 10.13C19.2525 10.079 19.9846 9.85614 20.6389 9.47855C21.3919 9.02634 22.0133 8.38471 22.4411 7.61759C22.8689 6.85047 23.0882 5.98463 23.0772 5.10635V4.0103C23.0766 3.56175 22.8982 3.13172 22.581 2.81455C22.2639 2.49737 21.8338 2.31895 21.3853 2.31841ZM5.01822 8.34238C4.46433 8.00566 4.0083 7.52973 3.69553 6.96198C3.38276 6.39423 3.22415 5.75446 3.23551 5.10635V4.0103C3.23562 3.90971 3.27562 3.81328 3.34675 3.74215C3.41787 3.67103 3.51431 3.63102 3.6149 3.63091H5.59718V6.48841C5.59775 7.24652 5.72281 7.99938 5.96735 8.71696C5.63468 8.63816 5.31504 8.51201 5.01822 8.34238ZM15.1704 6.81744L14.3717 7.39771C14.2801 7.46424 14.2119 7.55805 14.177 7.6657C14.142 7.77334 14.142 7.88929 14.177 7.99693L14.482 8.9357C14.517 9.04335 14.517 9.15931 14.482 9.26696C14.447 9.37461 14.3789 9.46843 14.2873 9.53496C14.1957 9.6015 14.0854 9.63734 13.9723 9.63734C13.8591 9.63734 13.7488 9.60152 13.6572 9.53499L12.8585 8.95479C12.7669 8.88828 12.6566 8.85246 12.5435 8.85246C12.4303 8.85246 12.32 8.88828 12.2285 8.95479L11.4297 9.53499C11.3381 9.60152 11.2278 9.63734 11.1147 9.63734C11.0015 9.63734 10.8912 9.6015 10.7996 9.53496C10.708 9.46843 10.6399 9.37461 10.6049 9.26696C10.5699 9.15931 10.57 9.04335 10.6049 8.9357L10.91 7.99693C10.9449 7.88928 10.9449 7.77333 10.9099 7.66568C10.8749 7.55804 10.8068 7.46424 10.7152 7.39771L9.917 6.81744C9.82541 6.75091 9.75725 6.6571 9.72226 6.54945C9.68727 6.4418 9.68727 6.32584 9.72224 6.21819C9.75721 6.11053 9.82537 6.01671 9.91694 5.95018C10.0085 5.88364 10.1188 5.8478 10.232 5.8478H11.219C11.3322 5.84781 11.4425 5.81198 11.5341 5.74546C11.6257 5.67894 11.6938 5.58513 11.7288 5.47749L12.0339 4.53871C12.0688 4.43106 12.137 4.33725 12.2286 4.27072C12.3202 4.20418 12.4304 4.16835 12.5436 4.16835C12.6568 4.16835 12.7671 4.20418 12.8587 4.27072C12.9502 4.33725 13.0184 4.43106 13.0534 4.53871L13.3584 5.47749C13.3935 5.58511 13.4616 5.67889 13.5532 5.74541C13.6448 5.81193 13.755 5.84777 13.8682 5.8478H14.8554C14.9686 5.84782 15.0788 5.88366 15.1704 5.9502C15.262 6.01674 15.3301 6.11055 15.3651 6.21819C15.4001 6.32584 15.4001 6.44179 15.3651 6.54944C15.3301 6.65708 15.262 6.7509 15.1704 6.81744ZM21.7647 5.10631C21.776 5.75448 21.6173 6.39431 21.3045 6.9621C20.9916 7.52989 20.5355 8.00584 19.9816 8.34256C19.7135 8.49616 19.4265 8.61424 19.1279 8.69386C19.3673 7.98314 19.4896 7.23825 19.4901 6.4883V3.6308H21.3853C21.4859 3.63091 21.5823 3.67092 21.6534 3.74204C21.7246 3.81317 21.7646 3.9096 21.7647 4.01019V5.10631Z" fill="white"/>
</svg>
