<?xml version="1.0" standalone="no"?>
<!DOCTYPE svg PUBLIC "-//W3C//DTD SVG 20010904//EN"
 "http://www.w3.org/TR/2001/REC-SVG-20010904/DTD/svg10.dtd">
<svg version="1.0" xmlns="http://www.w3.org/2000/svg"
 width="1040.000000pt" height="827.000000pt" viewBox="0 0 1040.000000 827.000000"
 preserveAspectRatio="xMidYMid meet">

<g transform="translate(0.000000,827.000000) scale(0.100000,-0.100000)"
fill="#000000" stroke="none">
<path d="M2960 8045 c-177 -33 -370 -105 -520 -195 -275 -165 -499 -443 -603
-750 -56 -165 -71 -267 -71 -500 -1 -235 10 -313 64 -485 50 -157 98 -482 107
-730 18 -479 -112 -746 -408 -840 -89 -28 -145 -34 -354 -39 -176 -5 -251 -22
-387 -92 -174 -91 -368 -266 -426 -386 -113 -233 -118 -590 -11 -881 86 -236
322 -452 587 -537 513 -165 1040 128 1178 655 22 84 26 122 27 235 0 168 -16
250 -88 430 -73 183 -86 236 -92 367 -7 139 12 232 70 346 52 102 175 230 290
301 488 303 1302 298 1769 -10 99 -66 201 -180 248 -278 47 -99 60 -160 60
-280 0 -122 -34 -260 -89 -360 -134 -242 -160 -525 -72 -779 103 -297 355
-532 668 -622 183 -53 454 -55 648 -4 445 116 754 530 732 979 -7 150 -34 246
-107 395 -124 250 -140 464 -51 659 116 252 411 430 836 503 157 26 472 24
640 -6 340 -60 617 -200 766 -387 178 -224 194 -489 50 -828 -71 -164 -85
-239 -85 -421 1 -130 5 -174 22 -236 77 -283 247 -493 497 -615 131 -63 241
-88 395 -87 246 0 441 74 633 238 218 186 317 453 305 815 -15 402 -213 696
-560 830 -108 42 -226 60 -386 59 -168 -1 -267 18 -378 71 -144 70 -241 198
-291 387 -64 244 -25 840 75 1154 49 151 63 258 64 468 0 222 -16 336 -72 502
-73 219 -175 385 -340 550 -218 219 -517 367 -827 409 -114 16 -380 8 -478
-14 -275 -62 -510 -190 -705 -386 -58 -58 -130 -141 -159 -185 -113 -165 -447
-510 -560 -580 -208 -126 -451 -123 -668 6 -101 61 -453 419 -542 552 -207
311 -557 537 -930 601 -116 20 -364 20 -471 1z m2405 -1565 c226 -33 412 -124
566 -279 385 -387 384 -1000 -2 -1382 -174 -173 -337 -250 -596 -280 -202 -24
-478 41 -636 150 -70 48 -192 167 -246 240 -66 89 -123 204 -157 316 -35 121
-45 321 -20 444 62 305 254 560 521 694 177 89 383 123 570 97z"/>
<path d="M547 1497 c-13 -10 -28 -120 -82 -587 -37 -316 -72 -586 -78 -600 -9
-19 -25 -28 -62 -35 -28 -6 -50 -16 -49 -23 1 -7 2 -17 3 -22 0 -7 66 -9 189
-8 178 3 187 4 187 23 0 15 -10 21 -45 28 -80 15 -78 -10 -40 417 18 209 36
380 40 380 4 0 51 -91 105 -202 128 -266 302 -597 328 -625 25 -28 39 -29 60
-5 8 9 104 199 212 422 108 223 203 411 209 418 14 15 13 23 63 -491 23 -240
25 -291 14 -309 -11 -17 -10 -23 3 -37 14 -13 45 -16 199 -16 175 0 182 1 185
20 2 18 -6 22 -68 32 -78 12 -97 23 -116 69 -7 17 -40 269 -74 560 -33 291
-63 541 -66 557 -7 34 -37 52 -56 34 -7 -8 -121 -235 -253 -506 -131 -270
-243 -490 -247 -489 -5 2 -120 223 -257 492 -136 269 -256 495 -267 503 -16
10 -23 10 -37 0z"/>
<path d="M3209 1493 c-11 -13 -15 -125 -19 -599 -6 -652 0 -606 -80 -621 -35
-7 -45 -13 -45 -28 0 -19 8 -20 210 -20 203 0 210 1 210 20 0 16 -10 21 -55
28 -66 11 -77 19 -90 66 -11 41 -35 820 -25 829 3 4 68 -59 143 -138 289 -306
539 -560 674 -688 116 -109 146 -132 167 -130 l26 3 5 586 c4 469 8 589 18
602 8 9 32 20 55 24 32 7 42 13 42 28 0 19 -8 20 -200 20 -193 0 -200 -1 -200
-20 0 -17 11 -22 64 -31 70 -13 78 -20 86 -79 7 -56 21 -835 15 -835 -3 0 -70
69 -150 153 -321 340 -794 828 -811 837 -23 13 -24 13 -40 -7z"/>
<path d="M2796 1493 c-4 -5 -168 -10 -364 -13 -344 -5 -357 -6 -357 -24 0 -16
11 -22 57 -31 32 -6 61 -15 65 -19 15 -14 21 -172 22 -491 0 -382 -11 -601
-30 -620 -8 -8 -30 -18 -49 -22 -25 -7 -35 -15 -35 -29 0 -18 13 -19 330 -27
182 -4 345 -5 362 -2 38 7 50 25 63 96 14 75 15 138 2 151 -17 17 -32 0 -51
-59 -23 -67 -57 -85 -176 -91 -121 -6 -181 3 -211 33 -24 24 -24 25 -24 260
l0 235 98 -1 c187 -1 232 -17 232 -80 0 -14 7 -33 16 -40 24 -20 44 14 44 76
0 28 5 77 11 109 12 66 2 90 -29 68 -35 -25 -61 -29 -214 -36 l-158 -6 0 226
0 226 148 -3 c168 -5 202 -16 202 -67 0 -36 22 -67 43 -59 17 6 27 66 30 176
2 60 -8 83 -27 64z"/>
<path d="M6816 1493 c-4 -5 -168 -10 -364 -13 -348 -5 -357 -5 -357 -25 0 -16
10 -21 53 -28 88 -14 83 21 80 -578 -2 -393 -6 -529 -15 -546 -8 -14 -27 -24
-53 -28 -33 -6 -40 -11 -40 -29 l0 -23 345 -6 c203 -4 355 -3 370 3 29 11 43
54 52 161 4 55 2 78 -7 84 -17 10 -33 -9 -50 -62 -21 -67 -56 -85 -175 -91
-121 -6 -181 3 -211 33 -24 24 -24 25 -24 260 l0 235 98 -1 c113 -1 198 -11
213 -26 6 -6 13 -29 16 -51 6 -41 27 -62 46 -43 5 5 13 52 18 104 4 51 11 105
14 120 10 37 -15 45 -57 19 -28 -16 -59 -21 -190 -26 l-158 -6 0 226 0 226
148 -4 c158 -4 188 -12 197 -53 3 -14 7 -36 10 -50 6 -29 41 -35 49 -7 10 33
28 203 22 218 -6 15 -18 18 -30 7z"/>
<path d="M8816 1493 c-4 -5 -170 -10 -369 -13 -349 -5 -362 -6 -362 -24 0 -16
12 -22 58 -31 33 -6 63 -18 67 -25 18 -28 22 -193 17 -612 -3 -278 -9 -446
-16 -469 -10 -32 -17 -37 -54 -45 -32 -7 -42 -14 -42 -29 0 -19 9 -20 330 -28
345 -7 385 -6 405 18 18 22 42 194 29 216 -19 36 -38 19 -57 -47 -15 -51 -36
-70 -92 -83 -60 -14 -217 -13 -260 2 -56 19 -60 36 -60 290 l0 227 98 -1 c187
-1 232 -17 232 -80 0 -14 7 -33 16 -40 26 -21 40 10 47 104 4 46 10 98 13 115
8 41 -14 51 -53 24 -25 -18 -47 -21 -188 -24 l-160 -3 -3 223 -2 224 148 -4
c173 -4 190 -10 206 -79 9 -34 16 -44 31 -44 21 0 21 -2 43 155 7 48 7 68 -2
78 -7 7 -16 9 -20 5z"/>
<path d="M4604 1466 c-9 -25 3 -34 56 -41 86 -12 81 21 78 -576 -2 -403 -6
-529 -16 -546 -8 -15 -26 -25 -52 -29 -39 -6 -54 -22 -42 -41 4 -6 109 -14
252 -19 450 -17 538 -8 696 70 211 104 344 330 344 580 0 174 -55 311 -170
427 -74 75 -185 135 -305 165 -101 25 -832 34 -841 10z m662 -91 c152 -29 296
-124 374 -245 76 -118 104 -283 76 -438 -28 -160 -99 -264 -222 -329 -101 -54
-164 -67 -304 -66 -147 1 -226 21 -247 63 -10 19 -13 144 -13 521 0 273 3 499
7 502 12 13 251 7 329 -8z"/>
<path d="M7104 1466 c-9 -24 3 -33 53 -40 73 -10 77 -15 85 -108 9 -118 9
-706 -1 -872 -10 -150 -13 -159 -71 -173 -25 -7 -35 -15 -35 -29 0 -18 13 -19
345 -27 385 -8 424 -6 445 26 17 26 41 186 32 210 -3 9 -15 17 -26 17 -15 0
-23 -10 -31 -42 -27 -98 -58 -113 -230 -113 -155 0 -195 8 -218 43 -16 24 -17
68 -17 534 0 359 3 510 11 518 6 6 33 14 60 18 40 6 49 11 49 27 0 19 -8 20
-223 23 -188 2 -223 0 -228 -12z"/>
<path d="M8944 1465 c-9 -22 3 -34 44 -41 73 -14 148 -113 427 -565 58 -95 69
-161 60 -369 -8 -201 -7 -197 -63 -213 -35 -11 -47 -19 -47 -33 0 -18 11 -19
225 -19 217 0 225 1 225 20 0 15 -10 21 -45 28 -89 16 -89 16 -100 55 -7 24
-10 115 -8 252 l3 215 84 140 c128 211 244 385 289 432 27 28 56 46 84 53 67
17 70 19 66 37 -3 16 -20 18 -172 21 -188 3 -211 -3 -162 -43 25 -20 28 -28
23 -58 -5 -32 -273 -497 -286 -497 -10 0 -311 507 -311 524 0 8 9 20 20 26 11
6 20 20 20 30 0 19 -8 20 -185 20 -153 0 -187 -3 -191 -15z"/>
</g>
</svg>
