<svg width="24" height="25" viewBox="0 0 24 25" fill="none" xmlns="http://www.w3.org/2000/svg">
<g clip-path="url(#clip0_5758_7176)">
<path d="M5 2.2832C3.8954 2.2832 3 3.1832 3 4.2832V12.2832V16.2832V22.2832C3 23.3832 3.8954 24.2832 5 24.2832H19C20.105 24.2832 21 23.3832 21 22.2832V16.2832V12.2832V8.2832L15 2.2832H5Z" fill="#C0392B"/>
<path d="M5 1.28271C3.8954 1.28271 3 2.18271 3 3.28271V11.2827V15.2827V21.2827C3 22.3827 3.8954 23.2827 5 23.2827H19C20.105 23.2827 21 22.3827 21 21.2827V15.2827V11.2827V7.28271L15 1.28271H5Z" fill="#E74C3C"/>
<path d="M21 7.28271L15 1.28271V5.28271C15 6.38271 15.895 7.28271 17 7.28271H21Z" fill="#C0392B"/>
<path d="M19.1125 11.2837H18.8225C18.7325 11.3837 18.2215 12.0837 18.0005 12.2837C17.9405 12.3837 17.8505 12.4836 17.7995 12.4836C17.0565 13.3836 15.4765 14.8837 14.5285 15.6837C14.4045 15.7837 14.2845 15.8837 14.2625 15.8837C14.1965 15.9837 13.5645 16.3836 13.2805 16.5836C12.3755 17.1836 11.3135 17.6837 10.4885 17.8837C8.86038 18.2837 7.59008 18.1837 5.94088 17.3837C5.44248 17.1837 4.73238 16.7836 4.34308 16.4836C3.96108 16.1836 4.00138 16.1837 4.00198 16.6837V17.1837L4.25978 17.2837C4.59048 17.4837 5.30428 17.8836 5.76968 18.0836C6.12428 18.2836 6.23478 18.3837 6.03638 18.3837C5.85358 18.2837 4.81618 18.2837 4.41758 18.3837H4.01758C4.00838 18.3837 4.00088 18.5837 4.00088 18.7837V19.1837H4.13418C4.70778 18.9837 5.93888 18.9836 6.51198 19.0836C7.18678 19.1836 7.66158 19.2836 8.23188 19.5836C9.31998 20.0836 10.2225 21.0836 10.6155 22.0836L10.6955 22.2837H11.1355H11.5755L11.5515 22.1837C11.4105 21.5837 11.0145 20.8837 10.5245 20.3837C10.2025 19.9837 9.63378 19.5837 9.40968 19.3837H9.33408C9.29768 19.2837 8.91758 19.0836 8.75518 19.0836C8.66278 18.9836 8.58748 18.9836 8.58748 18.9836C8.58748 18.8836 8.65748 18.8836 8.74298 18.9836C8.95648 18.9836 9.81628 18.8837 10.2055 18.7837C11.2835 18.5837 12.3035 18.1836 13.3345 17.5836C13.7045 17.3836 14.5445 16.6836 14.8805 16.4836C15.1305 16.1836 15.2105 16.1837 15.1085 16.2837C15.0725 16.3837 15.0035 16.4836 14.9535 16.5836C14.9045 16.6836 14.8185 16.7837 14.7635 16.8837C13.9855 18.0837 13.4865 19.5837 13.3515 21.2837C13.3325 21.5837 13.3165 21.8836 13.3165 21.9836V22.2837H15.6485H17.9805L17.9045 22.1837C17.4845 21.5837 16.9635 20.2837 16.7885 19.3837C16.6445 18.6837 16.6015 17.5836 16.6915 16.9836C16.9535 15.3836 17.8465 13.9836 19.3805 13.0836C19.5385 12.9836 19.7425 12.8837 19.8335 12.7837L20.0005 12.6837V12.3837C20.0005 12.1837 19.9885 11.9836 19.9735 11.9836C19.6095 12.1836 18.7995 12.6837 18.4275 12.8837C18.2285 13.0837 18.2165 13.0837 18.4035 12.8837C18.6715 12.5837 19.1335 12.0836 19.6245 11.4836L19.8535 11.2837H19.3525H19.1125Z" fill="#ECF0F1"/>
<path d="M8.6865 9.14267C8.6865 9.32567 8.6445 9.49367 8.5605 9.64667C8.4765 9.79667 8.3475 9.91817 8.1735 10.0112C7.9995 10.1042 7.7835 10.1507 7.5255 10.1507H7.0485V11.2847H6.279V8.12567H7.5255C7.7775 8.12567 7.9905 8.16917 8.1645 8.25617C8.3385 8.34317 8.469 8.46317 8.556 8.61617C8.643 8.76917 8.6865 8.94467 8.6865 9.14267ZM7.467 9.53867C7.614 9.53867 7.7235 9.50417 7.7955 9.43517C7.8675 9.36617 7.9035 9.26867 7.9035 9.14267C7.9035 9.01667 7.8675 8.91917 7.7955 8.85017C7.7235 8.78117 7.614 8.74667 7.467 8.74667H7.0485V9.53867H7.467ZM10.2706 8.12567C10.6036 8.12567 10.8946 8.19167 11.1436 8.32367C11.3926 8.45567 11.5846 8.64167 11.7196 8.88167C11.8576 9.11867 11.9266 9.39317 11.9266 9.70517C11.9266 10.0142 11.8576 10.2887 11.7196 10.5287C11.5846 10.7687 11.3911 10.9547 11.1391 11.0867C10.8901 11.2187 10.6006 11.2847 10.2706 11.2847H9.08711V8.12567H10.2706ZM10.2211 10.6187C10.5121 10.6187 10.7386 10.5392 10.9006 10.3802C11.0626 10.2212 11.1436 9.99617 11.1436 9.70517C11.1436 9.41417 11.0626 9.18767 10.9006 9.02567C10.7386 8.86367 10.5121 8.78267 10.2211 8.78267H9.85661V10.6187H10.2211ZM14.4131 8.12567V8.74217H13.1261V9.40817H14.0891V10.0067H13.1261V11.2847H12.3566V8.12567H14.4131Z" fill="white"/>
</g>
<defs>
<clipPath id="clip0_5758_7176">
<rect width="24" height="24" fill="white" transform="translate(0 0.28418)"/>
</clipPath>
</defs>
</svg>
