<svg width="56" height="61" viewBox="0 0 56 61" fill="none" xmlns="http://www.w3.org/2000/svg">
<path fill-rule="evenodd" clip-rule="evenodd" d="M20 27.5C20 28.051 20.448 28.5 21 28.5C21.552 28.5 22 28.051 22 27.5C22 26.949 21.552 26.5 21 26.5C20.448 26.5 20 26.949 20 27.5ZM22 45.5C22 44.949 21.552 44.5 21 44.5C20.448 44.5 20 44.949 20 45.5C20 46.051 20.448 46.5 21 46.5C21.552 46.5 22 46.051 22 45.5ZM14 27.5C14 26.949 13.552 26.5 13 26.5C12.448 26.5 12 26.949 12 27.5C12 28.051 12.448 28.5 13 28.5C13.552 28.5 14 28.051 14 27.5ZM14 39.5C14 38.949 13.552 38.5 13 38.5C12.448 38.5 12 38.949 12 39.5C12 40.051 12.448 40.5 13 40.5C13.552 40.5 14 40.051 14 39.5ZM20 17.5C20 18.051 20.448 18.5 21 18.5C21.552 18.5 22 18.051 22 17.5C22 16.949 21.552 16.5 21 16.5C20.448 16.5 20 16.949 20 17.5ZM14 18.5V24.684C14.848 24.986 15.514 25.653 15.815 26.5H18.185C18.599 25.338 19.698 24.5 21 24.5C22.654 24.5 24 25.846 24 27.5C24 28.802 23.161 29.901 22 30.316V42.684C23.161 43.099 24 44.198 24 45.5C24 46.802 23.161 47.901 22 48.316V51.5C22 52.052 21.553 52.5 21 52.5C20.447 52.5 20 52.052 20 51.5V48.315C18.979 47.952 18.218 47.058 18.047 45.96L14.293 42.207C14.29 42.205 14.29 42.201 14.287 42.198C13.896 42.386 13.463 42.5 13 42.5C11.346 42.5 10 41.154 10 39.5C10 37.846 11.346 36.5 13 36.5C14.654 36.5 16 37.846 16 39.5C16 39.962 15.886 40.396 15.698 40.787C15.701 40.79 15.704 40.791 15.707 40.793L18.614 43.701C18.965 43.237 19.443 42.883 20 42.684V30.315C19.152 30.014 18.486 29.347 18.185 28.5H15.815C15.401 29.662 14.302 30.5 13 30.5C11.346 30.5 10 29.154 10 27.5C10 26.198 10.839 25.099 12 24.684V17.5C12 16.948 12.447 16.5 13 16.5H18.185C18.486 15.653 19.152 14.986 20 14.684V11.5C20 10.948 20.447 10.5 21 10.5C21.553 10.5 22 10.948 22 11.5V14.684C23.161 15.099 24 16.198 24 17.5C24 19.154 22.654 20.5 21 20.5C19.698 20.5 18.599 19.662 18.185 18.5H14ZM53.633 37.745C55.122 36.436 56 34.542 56 32.5C56 30.36 55.049 28.394 53.415 27.074C53.8 26.271 54 25.396 54 24.5C54 22.436 52.917 20.535 51.208 19.45C51.724 18.551 52 17.537 52 16.5C52 13.92 50.361 11.677 47.989 10.849C47.996 10.732 48 10.616 48 10.5C48 7.191 45.309 4.5 42 4.5C41.193 4.5 40.407 4.664 39.673 4.98C38.813 2.376 36.34 0.5 33.5 0.5C29.292 0.5 27.421 4.296 27.02 6.304C27.013 6.337 27.022 6.369 27.02 6.403C27.017 6.437 27 6.465 27 6.5V53.44C26.774 56.279 24.363 58.5 21.5 58.5C18.647 58.5 16.243 56.271 16.026 53.424C15.986 52.903 15.522 52.5 15 52.5C14.688 52.5 14.394 52.646 14.204 52.894C13.428 53.915 12.26 54.5 11 54.5C8.794 54.5 7 52.706 7 50.5C7 49.592 7.316 48.724 7.916 47.989C8.186 47.658 8.216 47.191 7.989 46.828C7.763 46.465 7.335 46.285 6.913 46.384C6.578 46.462 6.279 46.5 6 46.5C3.794 46.5 2 44.706 2 42.5C2 40.851 3.047 39.351 4.604 38.767C4.975 38.628 5.229 38.284 5.252 37.89C5.275 37.495 5.063 37.123 4.713 36.942C3.039 36.079 2 34.376 2 32.5C2 30.736 2.907 29.136 4.427 28.22C4.664 28.077 4.831 27.842 4.889 27.571C4.946 27.299 4.888 27.017 4.729 26.79C4.252 26.109 4 25.318 4 24.5C4 22.839 5.058 21.336 6.631 20.759C6.942 20.645 7.177 20.384 7.258 20.063C7.338 19.741 7.253 19.4 7.032 19.153C6.366 18.41 6 17.468 6 16.5C6 14.562 7.389 12.911 9.301 12.573C9.569 12.525 9.808 12.37 9.959 12.143C10.11 11.916 10.162 11.637 10.104 11.371C10.034 11.059 10 10.774 10 10.5C10 8.294 11.794 6.5 14 6.5C14.866 6.5 15.701 6.789 16.416 7.336C16.707 7.558 17.096 7.604 17.429 7.456C17.764 7.307 17.99 6.988 18.021 6.624C18.211 4.312 20.179 2.5 22.5 2.5C23.614 2.5 24.535 2.858 25.315 3.594C25.718 3.973 26.351 3.954 26.729 3.552C27.108 3.15 27.09 2.518 26.688 2.139C25.535 1.051 24.126 0.5 22.5 0.5C19.66 0.5 17.187 2.376 16.327 4.98C15.593 4.664 14.807 4.5 14 4.5C10.691 4.5 8 7.191 8 10.5C8 10.616 8.004 10.732 8.011 10.849C5.639 11.677 4 13.92 4 16.5C4 17.537 4.276 18.551 4.792 19.45C3.083 20.535 2 22.436 2 24.5C2 25.396 2.2 26.271 2.585 27.074C0.951 28.394 0 30.36 0 32.5C0 34.542 0.878 36.436 2.367 37.745C0.906 38.862 0 40.616 0 42.5C0 45.593 2.353 48.147 5.363 48.466C5.123 49.114 5 49.798 5 50.5C5 53.809 7.691 56.5 11 56.5C12.242 56.5 13.424 56.123 14.416 55.432C15.436 58.386 18.255 60.5 21.5 60.5C25.408 60.5 28.701 57.458 28.997 53.576C28.998 53.563 28.992 53.551 28.992 53.538C28.993 53.524 29 53.514 29 53.5V6.61C29.148 5.996 30.135 2.5 33.5 2.5C35.821 2.5 37.789 4.312 37.979 6.624C38.01 6.988 38.236 7.307 38.571 7.456C38.904 7.604 39.293 7.558 39.584 7.336C40.299 6.789 41.134 6.5 42 6.5C44.206 6.5 46 8.294 46 10.5C46 10.774 45.966 11.059 45.896 11.371C45.838 11.637 45.89 11.916 46.041 12.143C46.192 12.37 46.431 12.525 46.699 12.573C48.611 12.911 50 14.562 50 16.5C50 17.468 49.634 18.41 48.968 19.153C48.747 19.4 48.662 19.741 48.742 20.063C48.823 20.384 49.058 20.645 49.369 20.759C50.942 21.336 52 22.839 52 24.5C52 25.318 51.748 26.109 51.271 26.79C51.112 27.017 51.054 27.299 51.111 27.571C51.169 27.842 51.336 28.077 51.573 28.22C53.093 29.136 54 30.736 54 32.5C54 34.376 52.961 36.079 51.287 36.942C50.937 37.123 50.725 37.495 50.748 37.89C50.771 38.284 51.025 38.628 51.396 38.767C52.953 39.351 54 40.851 54 42.5C54 44.706 52.206 46.5 50 46.5C49.721 46.5 49.422 46.462 49.087 46.384C48.667 46.285 48.238 46.465 48.011 46.828C47.784 47.191 47.814 47.658 48.084 47.989C48.684 48.724 49 49.592 49 50.5C49 52.706 47.206 54.5 45 54.5C43.736 54.5 42.57 53.908 41.802 52.875C41.544 52.53 41.095 52.389 40.686 52.523C40.538 52.572 40.408 52.653 40.303 52.756C40.117 52.922 39.994 53.158 39.974 53.424C39.757 56.271 37.353 58.5 34.5 58.5C33.243 58.5 32.057 58.087 31.07 57.306C30.635 56.963 30.008 57.037 29.665 57.469C29.322 57.902 29.396 58.531 29.828 58.874C31.153 59.922 32.813 60.5 34.5 60.5C37.747 60.5 40.568 58.382 41.586 55.425C42.575 56.121 43.755 56.5 45 56.5C48.309 56.5 51 53.809 51 50.5C51 49.798 50.877 49.114 50.637 48.466C53.647 48.147 56 45.593 56 42.5C56 40.616 55.094 38.862 53.633 37.745ZM36 45.5C36 46.052 36.447 46.5 37 46.5C38.458 46.5 40 48.042 40 49.5C40 50.052 40.447 50.5 41 50.5C41.553 50.5 42 50.052 42 49.5C42 46.93 39.57 44.5 37 44.5C36.447 44.5 36 44.948 36 45.5ZM45 18.5C43.542 18.5 42 16.958 42 15.5C42 14.948 41.553 14.5 41 14.5C40.447 14.5 40 14.948 40 15.5C40 18.07 42.43 20.5 45 20.5C45.553 20.5 46 20.052 46 19.5C46 18.948 45.553 18.5 45 18.5ZM33 40.5C33.553 40.5 34 40.052 34 39.5C34 38.042 35.542 36.5 37 36.5C37.553 36.5 38 36.052 38 35.5C38 34.948 37.553 34.5 37 34.5C34.43 34.5 32 36.93 32 39.5C32 40.052 32.447 40.5 33 40.5ZM37 28.5C37.553 28.5 38 28.052 38 27.5C38 26.948 37.553 26.5 37 26.5C35.542 26.5 34 24.958 34 23.5C34 22.948 33.553 22.5 33 22.5C32.447 22.5 32 22.948 32 23.5C32 26.07 34.43 28.5 37 28.5ZM47 24.5C46.447 24.5 46 24.948 46 25.5C46 26.958 44.458 28.5 43 28.5C42.447 28.5 42 28.948 42 29.5C42 30.052 42.447 30.5 43 30.5C45.57 30.5 48 28.07 48 25.5C48 24.948 47.553 24.5 47 24.5ZM43 36.5C42.447 36.5 42 36.948 42 37.5C42 38.052 42.447 38.5 43 38.5C44.458 38.5 46 40.042 46 41.5C46 42.052 46.447 42.5 47 42.5C47.553 42.5 48 42.052 48 41.5C48 38.93 45.57 36.5 43 36.5ZM32 14.5C32 11.93 34.43 9.5 37 9.5C37.553 9.5 38 9.948 38 10.5C38 11.052 37.553 11.5 37 11.5C35.542 11.5 34 13.042 34 14.5C34 15.052 33.553 15.5 33 15.5C32.447 15.5 32 15.052 32 14.5Z" fill="white"/>
</svg>
