<svg width="14" height="16" viewBox="0 0 14 16" fill="none" xmlns="http://www.w3.org/2000/svg">
<path d="M4.44592 8.60862C4.39955 8.41332 4.375 8.20955 4.375 8C4.375 7.79052 4.39954 7.58675 4.4459 7.39145L3.70218 6.96207L4.45218 5.66301L5.19642 6.0927C5.49126 5.81381 5.8507 5.60253 6.25 5.4837V4.625H7.75V5.4837C8.1493 5.60253 8.5087 5.81379 8.80352 6.09267L9.54782 5.66295L10.2979 6.962L9.55405 7.39137C9.60048 7.58675 9.625 7.79052 9.625 8C9.625 8.20947 9.60048 8.41325 9.55412 8.60855L10.2979 9.03792L9.5479 10.337L8.8036 9.90725C8.50878 10.1862 8.14937 10.3974 7.75008 10.5162V11.375H6.25008V10.5163C5.85078 10.3975 5.49133 10.1862 5.19649 9.90732L4.45223 10.3371L3.70218 9.038L4.44592 8.60862ZM7 9.125C7.6213 9.125 8.125 8.6213 8.125 8C8.125 7.3787 7.6213 6.875 7 6.875C6.3787 6.875 5.875 7.3787 5.875 8C5.875 8.6213 6.3787 9.125 7 9.125ZM9.25 2H1.75V14H12.25V5H9.25V2ZM0.25 1.24385C0.25 0.833037 0.585618 0.5 0.998875 0.5H10L13.7498 4.25L13.75 14.7444C13.75 15.1617 13.4163 15.5 13.0049 15.5H0.99505C0.58357 15.5 0.25 15.1585 0.25 14.7561V1.24385Z" fill="#666666"/>
</svg>
