<svg width="20" height="18" viewBox="0 0 20 18" fill="none" xmlns="http://www.w3.org/2000/svg">
<path d="M16 11.7227C15.1086 11.7227 14.3069 12.0977 13.7376 12.6962L7.08625 9.4397C7.10912 9.2867 7.12487 9.13182 7.12487 8.97245C7.12487 8.8172 7.10987 8.6657 7.08812 8.51682L13.7297 5.29595C14.2994 5.89932 15.1049 6.27807 16 6.27807C17.7257 6.27807 19.1249 4.87895 19.1249 3.1532C19.1249 1.42707 17.7257 0.0283203 16 0.0283203C14.2742 0.0283203 12.8751 1.42707 12.8751 3.1532C12.8751 3.30845 12.8901 3.45957 12.9119 3.60882L6.27025 6.8297C5.70062 6.22632 4.8955 5.84757 4 5.84757C2.27387 5.84757 0.875122 7.2467 0.875122 8.97245C0.875122 10.6986 2.27387 12.0973 4 12.0973C4.89137 12.0973 5.69312 11.7223 6.26237 11.1238L12.9137 14.3803C12.8909 14.5329 12.8751 14.6882 12.8751 14.8476C12.8751 16.5737 14.2742 17.9724 16 17.9724C17.7257 17.9724 19.1249 16.5737 19.1249 14.8476C19.1249 13.1214 17.7257 11.7227 16 11.7227Z" fill="white"/>
</svg>
