<svg width="44" height="44" viewBox="0 0 44 44" fill="none" xmlns="http://www.w3.org/2000/svg">
<rect x="0.864195" y="0.678892" width="42.642" height="42.642" rx="21.321" fill="white"/>
<rect x="0.864195" y="0.678892" width="42.642" height="42.642" rx="21.321" stroke="#D9E1EC" stroke-width="0.814815"/>
<g clip-path="url(#clip0_5009_6542)">
<path d="M30.5524 17.6793C30.5653 17.8642 30.5653 18.0491 30.5653 18.2357C30.5653 23.9218 26.2257 30.4795 18.2907 30.4795V30.4761C15.9466 30.4795 13.6513 29.8097 11.678 28.5469C12.0188 28.5878 12.3614 28.6083 12.7048 28.6091C14.6473 28.6108 16.5343 27.9607 18.0626 26.7635C16.2166 26.7286 14.5978 25.528 14.0323 23.7752C14.6789 23.8996 15.3452 23.874 15.9799 23.7011C13.9673 23.2955 12.5194 21.5316 12.5194 19.4832C12.5194 19.4645 12.5194 19.4466 12.5194 19.4287C13.1191 19.7618 13.7905 19.9467 14.4773 19.9672C12.5818 18.7035 11.9975 16.1882 13.1421 14.2215C15.3324 16.9099 18.564 18.5442 22.0331 18.7172C21.6854 17.2226 22.1604 15.6565 23.2811 14.6058C25.0187 12.9766 27.7514 13.0601 29.3847 14.7924C30.3508 14.6024 31.2768 14.2488 32.1242 13.7478C31.8022 14.7439 31.1282 15.59 30.2278 16.1277C31.0829 16.0271 31.9184 15.7988 32.7051 15.4502C32.126 16.316 31.3964 17.0701 30.5524 17.6793Z" fill="#1D9BF0"/>
</g>
<defs>
<clipPath id="clip0_5009_6542">
<rect width="21.1852" height="17.3827" fill="white" transform="translate(11.5925 13.3086)"/>
</clipPath>
</defs>
</svg>
