<svg width="12" height="17" viewBox="0 0 12 17" fill="none" xmlns="http://www.w3.org/2000/svg">
<path d="M0 16.5C0 13.1863 2.68629 10.5 6 10.5C9.31372 10.5 12 13.1863 12 16.5H0ZM6.75 12.0623V15H10.2439C9.70672 13.4801 8.3763 12.335 6.75 12.0623ZM5.25 15V12.0623C3.62374 12.335 2.29324 13.4801 1.75606 15H5.25ZM6 9.75002C3.51375 9.75002 1.5 7.73627 1.5 5.25002C1.5 2.76377 3.51375 0.750015 6 0.750015C8.48625 0.750015 10.5 2.76377 10.5 5.25002C10.5 7.73627 8.48625 9.75002 6 9.75002ZM6 8.25002C7.6578 8.25002 9 6.90784 9 5.25002C9 3.59219 7.6578 2.25002 6 2.25002C4.34218 2.25002 3 3.59219 3 5.25002C3 6.90784 4.34218 8.25002 6 8.25002Z" fill="#8f9295"/>
</svg>
