<svg width="18" height="18" viewBox="0 0 18 18" fill="none" xmlns="http://www.w3.org/2000/svg">
<path fill-rule="evenodd" clip-rule="evenodd" d="M2.15675 4.243L2.04394 4.50037C1.96135 4.68877 1.69925 4.68877 1.61671 4.50037L1.50385 4.243C1.30274 3.78413 0.940541 3.41875 0.488531 3.21888L0.140965 3.06515C-0.0469883 2.98203 -0.0469883 2.7101 0.140965 2.62698L0.469105 2.48185C0.932725 2.27684 1.30145 1.89795 1.4991 1.42348L1.61492 1.14536C1.69569 0.951547 1.96491 0.951547 2.04568 1.14536L2.1615 1.42348C2.35919 1.89795 2.72792 2.27684 3.19154 2.48185L3.51964 2.62698C3.70764 2.7101 3.70764 2.98203 3.51964 3.06515L3.17207 3.21888C2.7201 3.41875 2.35787 3.78413 2.15675 4.243ZM7.47981 13.5H8.25H9.75H10.5202C10.6192 12.5988 11.0791 11.8549 11.8257 11.042C11.8545 11.0106 11.9367 10.9245 12.0349 10.8216C12.2235 10.6242 12.471 10.365 12.5131 10.3126C13.1488 9.51982 13.5 8.53875 13.5 7.5C13.5 5.01472 11.4853 3 9 3C6.51472 3 4.5 5.01472 4.5 7.5C4.5 8.53823 4.8508 9.51877 5.48596 10.3113C5.52815 10.364 5.77702 10.6247 5.96575 10.8223L5.96968 10.8265C6.06579 10.9272 6.14568 11.0109 6.17365 11.0413C6.92074 11.8548 7.38077 12.5988 7.47981 13.5ZM7.5 15V15.75H10.5V15H7.5ZM4.31546 11.2494C3.49234 10.2223 3 8.91862 3 7.5C3 4.18629 5.68629 1.5 9 1.5C12.3137 1.5 15 4.18629 15 7.5C15 8.91937 14.5071 10.2236 13.6832 11.251C13.5761 11.3846 13.4292 11.536 13.2664 11.7038C12.7218 12.265 12 13.009 12 13.875V15.75C12 16.5784 11.3284 17.25 10.5 17.25H7.5C6.67157 17.25 6 16.5784 6 15.75V13.875C6 13.0094 5.27829 12.2653 4.73345 11.7036C4.57025 11.5353 4.42275 11.3833 4.31546 11.2494ZM7.27655 8.07035C7.24372 7.93207 7.22635 7.78778 7.22635 7.63946C7.22635 7.49113 7.24372 7.3469 7.27654 7.20861L6.75 6.90464L7.28099 5.9849L7.80787 6.28913C8.01667 6.09166 8.27115 5.94209 8.55382 5.85795V5.25H9.61575V5.85795C9.8985 5.94208 10.153 6.09166 10.3617 6.28907L10.8886 5.98485L11.4197 6.90458L10.8931 7.20856C10.9259 7.34684 10.9432 7.49113 10.9432 7.63946C10.9432 7.78778 10.9259 7.93202 10.8931 8.0703L11.4197 8.37435L10.8887 9.294L10.3618 8.9898C10.153 9.18728 9.8985 9.33683 9.61582 9.42098V10.0289H8.5539V9.42098C8.27122 9.33683 8.01667 9.18728 7.80795 8.98988L7.28101 9.29408L6.75 8.37435L7.27655 8.07035ZM9.08482 8.43593C9.5247 8.43593 9.88132 8.07933 9.88132 7.63946C9.88132 7.19958 9.5247 6.84296 9.08482 6.84296C8.64495 6.84296 8.28832 7.19958 8.28832 7.63946C8.28832 8.07933 8.64495 8.43593 9.08482 8.43593ZM16.0439 14.5004L16.1567 14.243C16.3579 13.7841 16.7201 13.4187 17.1721 13.2189L17.5196 13.0652C17.7076 12.982 17.7076 12.7101 17.5196 12.627L17.1915 12.4818C16.7279 12.2768 16.3592 11.898 16.1615 11.4235L16.0457 11.1454C15.9649 10.9516 15.6957 10.9516 15.6149 11.1454L15.4991 11.4235C15.3015 11.898 14.9327 12.2768 14.4691 12.4818L14.141 12.627C13.953 12.7101 13.953 12.982 14.141 13.0652L14.4885 13.2189C14.9405 13.4187 15.3027 13.7841 15.5039 14.243L15.6167 14.5004C15.6993 14.6888 15.9613 14.6888 16.0439 14.5004Z" fill="#999999"/>
</svg>
