<svg width="17" height="18" viewBox="0 0 17 18" fill="none" xmlns="http://www.w3.org/2000/svg">
<path d="M2.83331 3.33329V11.8333H14.1666V3.33329H2.83331ZM1.41665 2.63026C1.41665 2.23613 1.73916 1.91663 2.11917 1.91663H14.8808C15.2688 1.91663 15.5833 2.23461 15.5833 2.63026V13.25H1.41665V2.63026ZM0.708313 13.9583H16.2916V15.375H0.708313V13.9583Z" fill="#999999"/>
<path d="M6.08537 8.15634C6.0416 7.97197 6.01843 7.77958 6.01843 7.58182C6.01843 7.38405 6.04159 7.19174 6.08536 7.00736L5.3833 6.60205L6.09129 5.37575L6.79384 5.78137C7.07215 5.51809 7.41149 5.31866 7.78839 5.20648V4.39587H9.20435V5.20648C9.58125 5.31865 9.92061 5.51809 10.1989 5.7813L10.9015 5.37568L11.6096 6.60198L10.9074 7.00729C10.9512 7.19167 10.9743 7.38405 10.9743 7.58182C10.9743 7.77958 10.9512 7.97189 10.9074 8.15627L11.6096 8.56165L10.9016 9.78792L10.199 9.38226C9.92068 9.64555 9.58132 9.84494 9.20442 9.95714V10.7678H7.78846V9.95721C7.41156 9.84501 7.07222 9.64562 6.7939 9.38233L6.09132 9.78799L5.3833 8.56172L6.08537 8.15634ZM8.49637 8.64382C9.08287 8.64382 9.55837 8.16832 9.55837 7.58182C9.55837 6.99532 9.08287 6.51981 8.49637 6.51981C7.90987 6.51981 7.43444 6.99532 7.43444 7.58182C7.43444 8.16832 7.90987 8.64382 8.49637 8.64382Z" fill="#999999"/>
</svg>
