<svg width="18" height="18" viewBox="0 0 18 18" fill="none" xmlns="http://www.w3.org/2000/svg">
<path d="M2.31523 6.75H15.6851C16.0993 6.75 16.4351 7.08579 16.4351 7.5C16.4351 7.52077 16.4342 7.54155 16.4324 7.56225L15.8075 15.0623C15.7751 15.451 15.4501 15.75 15.06 15.75H2.94023C2.55016 15.75 2.22521 15.451 2.19282 15.0623L1.56782 7.56225C1.53342 7.1495 1.84016 6.78699 2.25294 6.75259C2.27367 6.75086 2.29444 6.75 2.31523 6.75ZM3.63033 14.25H14.3699L14.87 8.25H3.13033L3.63033 14.25ZM10.0608 3.75H15.0002C15.4144 3.75 15.7502 4.08579 15.7502 4.5V5.25H2.25013V3C2.25013 2.58579 2.58592 2.25 3.00013 2.25H8.5608L10.0608 3.75Z" fill="#0E70FF"/>
</svg>
