<?xml version="1.0" encoding="UTF-8"?>
<svg version="1.1" xmlns="http://www.w3.org/2000/svg" width="512" height="512">
<path d="M0 0 C0.93335617 -0.00507454 1.86671234 -0.01014909 2.82835203 -0.0153774 C3.85556646 -0.01587516 4.88278088 -0.01637292 5.94112301 -0.01688576 C7.03102266 -0.02126801 8.12092231 -0.02565027 9.24384922 -0.03016531 C12.91482838 -0.04357492 16.58578353 -0.04973707 20.25678158 -0.0558567 C22.88136053 -0.06375603 25.50593839 -0.07202487 28.1305151 -0.08063698 C36.0211051 -0.10515919 43.91170139 -0.11978893 51.80231777 -0.13269705 C54.03153781 -0.13640945 56.26075723 -0.14038265 58.48997664 -0.14444971 C72.33670796 -0.16968937 86.18344027 -0.19173992 100.03018951 -0.20417786 C103.23755618 -0.2071075 106.44492281 -0.21006917 109.65228939 -0.21308327 C110.84803712 -0.21420234 110.84803712 -0.21420234 112.06794136 -0.21534403 C124.97471579 -0.22799122 137.88135225 -0.26120556 150.78806222 -0.3028851 C164.04325186 -0.3453385 177.29837095 -0.36887691 190.55362839 -0.37409842 C197.99425382 -0.37750895 205.43466377 -0.38922143 212.87522221 -0.42220116 C219.21367034 -0.45024991 225.55185881 -0.46118006 231.89036418 -0.4500057 C235.12216111 -0.44483093 238.35330271 -0.45037357 241.58504391 -0.47247124 C245.09603368 -0.4951683 248.60566278 -0.48686336 252.11666012 -0.47098732 C253.12825949 -0.48486941 254.13985886 -0.49875149 255.18211275 -0.51305425 C266.01567604 -0.39269849 273.46654967 4.35538801 280.87909603 11.91167259 C281.54712749 12.57254875 282.21515896 13.23342491 282.9034338 13.91432762 C285.08249788 16.07664451 287.24307193 18.25639851 289.40302181 20.43779564 C290.92534115 21.95928515 292.44847737 23.47995772 293.97238827 24.99985313 C297.15229498 28.17691157 300.32330021 31.36251726 303.48798275 34.554739 C307.53441044 38.63529012 311.600626 42.69542228 315.67348194 46.74957561 C318.81742532 49.882927 321.95151021 53.02599123 325.08265209 56.17213058 C326.5781095 57.67275108 328.0763762 59.1705776 329.57754803 60.66548157 C331.67630047 62.75875382 333.7616207 64.86456851 335.84393978 66.97417259 C336.45904919 67.58275612 337.07415859 68.19133965 337.70790768 68.8183651 C338.56534321 69.69488731 338.56534321 69.69488731 339.44010067 70.58911705 C340.17833222 71.33155899 340.17833222 71.33155899 340.93147755 72.08899975 C346.90157026 80.0189434 347.0475931 86.84174631 346.98126888 96.49788475 C346.98588175 97.96069867 346.99223727 99.42350795 347.00017786 100.8863076 C347.01684107 104.89293322 347.00863871 108.89917663 346.99623299 112.90580344 C346.9871726 117.2316791 347.00115701 121.55748962 347.01215267 125.88335228 C347.02993103 134.35198159 347.02610122 142.82046903 347.01450211 151.28910388 C347.00546657 158.17102496 347.00424431 165.0529063 347.00859737 171.93483162 C347.00921031 172.91449324 347.00982324 173.89415486 347.01045474 174.9035032 C347.01173365 176.89367455 347.0130305 178.88384589 347.01434511 180.87401722 C347.0257486 199.53127299 347.0126402 218.18845011 346.99114364 236.84569298 C346.97326728 252.85673921 346.97638166 268.86766946 346.99481869 284.87871361 C347.01621983 303.47255516 347.02465587 322.06632783 347.01236963 340.66017997 C347.01109543 342.6423962 347.00983795 344.62461244 347.00859737 346.60682869 C347.00767172 348.06976498 347.00767172 348.06976498 347.00672737 349.56225554 C347.00327262 356.43745366 347.00910539 363.3126081 347.01851559 370.18779945 C347.02972829 378.56399462 347.02671063 386.94003983 347.00539261 395.3162178 C346.99487323 399.59041307 346.99077548 403.86435823 347.00398922 408.13855171 C347.01590036 412.05051583 347.00937209 415.96199773 346.98807901 419.87391804 C346.98360755 421.28965301 346.9858915 422.70542865 346.99558216 424.12113751 C347.06335415 434.84365729 347.06335415 434.84365729 344.8165884 439.76869583 C338.95960616 445.68832691 334.96579354 446.6007732 326.78027588 446.67198801 C325.47182345 446.66306512 324.16337102 446.65414224 322.81526852 446.64494896 C321.40439076 446.64955944 319.99351781 446.65591335 318.58265489 446.66385794 C314.71025609 446.68055468 310.83825164 446.6723035 306.96585143 446.65991306 C302.78784268 446.65086616 298.60990195 446.66483056 294.4319067 446.67583275 C286.24875404 446.69362689 278.06574807 446.68977388 269.88258965 446.67818218 C263.23184557 446.66915104 256.58114262 446.66792249 249.93039417 446.67227745 C248.51088486 446.67319685 248.51088486 446.67319685 247.06269858 446.67413482 C245.14025389 446.67541372 243.21780922 446.67671057 241.29536455 446.67802519 C223.26472369 446.68943376 205.23416415 446.67631324 187.20353662 446.65482372 C171.73231191 446.63695538 156.26120725 446.64005413 140.7899847 446.65849876 C122.82570383 446.67990555 104.86149427 446.68833205 86.89720243 446.67604971 C84.98149837 446.67477551 83.0657943 446.67351803 81.15009022 446.67227745 C80.20751942 446.67166035 79.26494862 446.67104325 78.29381507 446.67040744 C71.65154555 446.66695376 65.00932126 446.67278336 58.36705875 446.68219566 C50.27154693 446.69341502 42.17619023 446.69037706 34.08069617 446.66907269 C29.95018194 446.65856095 25.81992634 446.65444241 21.68941402 446.6676693 C17.90745843 446.67959682 14.12600098 446.67302514 10.34409051 446.65175909 C8.32943851 446.64518096 6.31475188 446.65822604 4.30013615 446.67198801 C-2.50197998 446.61293737 -7.07345293 446.36962568 -12.52666569 442.13701439 C-16.72064872 436.66512404 -17.12703177 432.21108364 -16.96416569 425.44951439 C-16.97125553 424.60840111 -16.97834538 423.76728783 -16.98565006 422.90068626 C-16.94883755 419.32987293 -16.87607239 416.80983027 -15.21416569 413.60967064 C-12.51952252 411.25809546 -10.01811597 411.25952142 -6.52666569 411.13701439 C-4.21416569 411.82451439 -4.21416569 411.82451439 -2.52666569 413.13701439 C-0.52666569 417.13701439 -0.52666569 417.13701439 -0.52666569 430.13701439 C109.03333431 430.13701439 218.59333431 430.13701439 331.47333431 430.13701439 C331.47333431 320.90701439 331.47333431 211.67701439 331.47333431 99.13701439 C308.37333431 99.13701439 285.27333431 99.13701439 261.47333431 99.13701439 C251.47333431 94.13701439 251.47333431 94.13701439 248.47333431 88.13701439 C248.47333431 64.37701439 248.47333431 40.61701439 248.47333431 16.13701439 C166.30333431 16.13701439 84.13333431 16.13701439 -0.52666569 16.13701439 C-0.40786758 69.22629328 -0.40786758 69.22629328 -0.25640202 122.31548119 C-0.24285221 132.5761013 -0.24285221 132.5761013 -0.24033451 137.37732506 C-0.23753601 140.73549897 -0.22627956 144.09353105 -0.209939 147.45166588 C-0.18937637 151.73414142 -0.18318947 156.01641044 -0.18744886 160.29893076 C-0.18655807 161.87125065 -0.18060038 163.44357769 -0.1690203 165.01585519 C-0.15410586 167.13936349 -0.15769188 169.26206872 -0.16590214 171.38559532 C-0.16313676 172.57563006 -0.16037138 173.76566481 -0.1575222 174.99176121 C-0.56528936 178.46610387 -1.44559248 180.35222855 -3.52666569 183.13701439 C-5.39385319 184.01982689 -5.39385319 184.01982689 -7.40166569 184.26201439 C-8.05908756 184.36771751 -8.71650944 184.47342064 -9.39385319 184.58232689 C-12.87426705 183.85564707 -14.30371307 181.82182722 -16.52666569 179.13701439 C-17.15307808 175.91481686 -17.15307808 175.91481686 -17.15485477 172.19818687 C-17.16194916 171.51211135 -17.16904355 170.82603582 -17.17635292 170.11917013 C-17.1939173 167.82644794 -17.17583849 165.53542473 -17.1577692 163.24272728 C-17.16290873 161.59656567 -17.17019026 159.95040956 -17.17945194 158.30426598 C-17.19797161 153.83715237 -17.1850234 149.37063537 -17.16536164 144.90354657 C-17.14897567 140.22716595 -17.15778809 135.55082313 -17.1628809 130.87442589 C-17.16740236 123.02020808 -17.15152987 115.16622837 -17.12358952 107.31206322 C-17.0915485 98.23527826 -17.09154885 89.15892302 -17.10880429 80.0821076 C-17.12467691 71.34740446 -17.11793036 62.61285866 -17.10086727 53.87816238 C-17.09399978 50.16256007 -17.09502617 46.44708398 -17.10241222 42.73148346 C-17.11008219 38.35401061 -17.0979259 33.97702576 -17.07056332 29.59963608 C-17.06368541 27.99444718 -17.06357517 26.38921266 -17.07077885 24.78402519 C-17.07949031 22.58975017 -17.0634916 20.39697537 -17.04132938 18.20282555 C-17.03852246 16.97596063 -17.03571554 15.74909571 -17.03282356 14.48505306 C-16.25347609 9.32997081 -13.76946021 6.25856067 -9.96416569 2.82451439 C-6.57341634 0.47707253 -4.02085373 0.0116043 0 0 Z M264.47333431 20.13701439 C264.47333431 40.92701439 264.47333431 61.71701439 264.47333431 83.13701439 C285.26333431 83.13701439 306.05333431 83.13701439 327.47333431 83.13701439 C323.62585917 78.64829339 319.83702855 74.35445044 315.66742611 70.20171165 C315.12195629 69.65448952 314.57648647 69.10726738 314.01448727 68.54346275 C312.23632525 66.76094918 310.45459053 64.98205913 308.67255306 63.20342064 C307.42784422 61.95803742 306.1832838 60.71250585 304.93886471 59.46683311 C302.34414636 56.8706474 299.74764491 54.27626209 297.14984798 51.68315697 C293.81278763 48.35182916 290.48028474 45.01598382 287.14907265 41.67880917 C284.58679305 39.11292836 282.02215189 36.54941872 279.4567728 33.98663712 C278.22598242 32.75651538 276.99593876 31.52564607 275.76664448 30.29402924 C274.05758605 28.58244769 272.34538396 26.87407629 270.63226986 25.1665554 C270.12165005 24.65391136 269.61103024 24.14126732 269.0849371 23.61308861 C267.11775589 21.19561418 267.11775589 21.19561418 264.47333431 20.13701439 Z " fill="#000000" transform="translate(165.52666568756104,11.862985610961914)"/>
<path d="M0 0 C19.41934895 16.23127485 33.0265981 38.81662782 36.12841797 64.17480469 C38.10381364 92.48880935 32.21589933 119.16963811 13.54638672 141.27636719 C12.82966797 142.076875 12.11294922 142.87738281 11.37451172 143.70214844 C10.57529297 144.59546875 9.77607422 145.48878906 8.95263672 146.40917969 C-7.88519729 164.2184272 -31.97290908 175.78018206 -56.62548828 176.70214844 C-57.53169922 176.74210938 -58.43791016 176.78207031 -59.37158203 176.82324219 C-84.21213922 177.38405158 -107.28944285 169.10543886 -126.62548828 153.70214844 C-131.4840708 157.65680863 -136.08826661 161.88532884 -140.62548828 166.20214844 C-141.22578857 166.74766357 -141.82608887 167.29317871 -142.44458008 167.85522461 C-144.04597447 169.40637918 -145.41976374 170.82606633 -146.62548828 172.70214844 C-146.65467304 175.77710286 -146.65467304 175.77710286 -145.62548828 178.70214844 C-145.44264524 180.61416427 -145.31793207 182.53259447 -145.25048828 184.45214844 C-145.20150391 185.39574219 -145.15251953 186.33933594 -145.10205078 187.31152344 C-146.96293541 199.36561192 -156.34327187 207.1545632 -164.57861328 215.31933594 C-165.96311194 216.70720882 -167.34686816 218.09582269 -168.72991943 219.48513794 C-171.6201662 222.38272478 -174.5191811 225.27115564 -177.42480469 228.15332031 C-181.13486818 231.83487227 -184.82199093 235.538458 -188.50282669 239.24920464 C-191.35235515 242.11686024 -194.21375927 244.97242755 -197.07881927 247.82455826 C-198.44273881 249.1851602 -199.80300336 250.5494369 -201.15940094 251.91753769 C-203.06100831 253.83194532 -204.97809537 255.72943347 -206.89990234 257.62353516 C-207.72322807 258.46204262 -207.72322807 258.46204262 -208.56318665 259.31748962 C-213.39225994 264.01935651 -218.93355537 267.0924274 -225.62939453 268.19824219 C-234.23087688 268.00126168 -240.70224937 266.42053959 -247.08251953 260.40527344 C-252.84859528 254.04069362 -253.085931 247.90946508 -253.15673828 239.48339844 C-252.06727589 231.72898965 -247.96678243 226.44734131 -242.51513672 221.07421875 C-241.91292801 220.46500076 -241.3107193 219.85578278 -240.69026184 219.22810364 C-238.71500727 217.23537575 -236.72563888 215.25748639 -234.73486328 213.28027344 C-233.3466852 211.88939741 -231.95910108 210.49792834 -230.57208252 209.105896 C-227.67006968 206.1980025 -224.76098851 203.29742417 -221.84667969 200.40185547 C-218.12318776 196.70115151 -214.41794444 192.9827775 -210.71783066 189.25871658 C-207.85793808 186.38432764 -204.98853416 183.51958582 -202.11621857 180.65761566 C-200.74663427 179.29068802 -199.37998275 177.92081503 -198.01641083 176.54788971 C-196.10496328 174.62621379 -194.18103468 172.71793877 -192.25341797 170.8125 C-191.69936783 170.25035294 -191.14531769 169.68820587 -190.57447815 169.10902405 C-184.33480487 163.00082475 -177.4604957 159.60957711 -168.62548828 159.70214844 C-167.87203125 159.8777832 -167.11857422 160.05341797 -166.34228516 160.234375 C-163.5551599 160.87552851 -161.47196278 161.08155833 -158.62548828 160.70214844 C-154.66029649 158.10094971 -151.65866848 154.77676263 -148.50048828 151.26464844 C-147.63939453 150.35392578 -146.77830078 149.44320312 -145.89111328 148.50488281 C-143.77558893 146.26007642 -141.68990982 143.99386616 -139.62548828 141.70214844 C-140.72799069 139.96624128 -141.8309438 138.23062037 -142.93408203 136.49511719 C-143.54823975 135.52856201 -144.16239746 134.56200684 -144.79516602 133.56616211 C-145.95266012 131.75496252 -147.11860229 129.9491101 -148.29614258 128.15087891 C-161.58913437 107.74854981 -164.74785522 81.28234705 -160.43798828 57.63964844 C-156.21850868 39.96081031 -148.93365605 24.14233833 -136.62548828 10.70214844 C-135.85462891 9.85007813 -135.08376953 8.99800781 -134.28955078 8.12011719 C-99.17940053 -28.86484692 -39.43688827 -31.48790899 0 0 Z M-126.62548828 23.70214844 C-141.74669303 42.33476266 -147.17699316 64.16728639 -145.62548828 87.70214844 C-143.14815409 109.20847766 -130.90678677 128.826694 -114.62548828 142.70214844 C-98.45314651 155.39885535 -77.26551376 162.61180859 -56.62548828 160.70214844 C-33.20967202 157.5976877 -13.16116191 147.8497742 2.37451172 129.70214844 C16.67681662 110.73258953 22.69145632 88.3765424 19.91357422 64.78808594 C16.03175616 43.09557325 4.73367633 23.94147619 -12.81298828 10.45214844 C-49.49603444 -14.5590194 -96.83536933 -10.10907022 -126.62548828 23.70214844 Z M-181.1051178 182.79740906 C-181.63366867 183.33517471 -182.16221954 183.87294037 -182.70678711 184.42700195 C-183.28151764 184.99968811 -183.85624817 185.57237427 -184.44839478 186.16241455 C-186.33376786 188.04479535 -188.20821734 189.9376555 -190.08251953 191.83105469 C-191.39375877 193.14535349 -192.7055913 194.45906063 -194.01799011 195.77220154 C-196.76016626 198.51897049 -199.49736957 201.27056473 -202.23071289 204.02612305 C-205.73901557 207.5627909 -209.25601505 211.0906463 -212.77629566 214.61538792 C-215.48160867 217.32485049 -218.18407859 220.03713267 -220.88550377 222.75047112 C-222.18205677 224.05272958 -223.47908473 225.35451533 -224.77659035 226.65582466 C-226.58409113 228.47017677 -228.38815873 230.28786941 -230.19116211 232.10668945 C-230.72983414 232.64647934 -231.26850616 233.18626923 -231.82350159 233.74241638 C-234.98460435 236.94042146 -236.48742408 238.48258131 -237.00048828 243.01464844 C-236.92643111 246.8027857 -236.92643111 246.8027857 -234.50048828 249.63964844 C-231.80110526 251.83298706 -231.80110526 251.83298706 -228.81298828 252.45214844 C-219.52286513 250.26623711 -211.49913312 238.72164652 -204.84814453 232.05761719 C-203.62900625 230.83915364 -202.40971966 229.62083848 -201.19029236 228.40266418 C-198.6513584 225.86519587 -196.11422052 223.3259492 -193.57836914 220.78540039 C-190.32451804 217.525816 -187.06614836 214.27079108 -183.80645084 211.01705456 C-181.29543098 208.50963991 -178.7867873 205.99985886 -176.27886772 203.48934364 C-175.0774828 202.28729122 -173.87535345 201.08598234 -172.672472 199.88542747 C-170.9995171 198.21500235 -169.32978429 196.54142271 -167.66088867 194.86694336 C-167.16276169 194.37084061 -166.6646347 193.87473785 -166.15141296 193.36360168 C-163.32157871 190.51613645 -161.78913012 188.92946226 -161.25048828 184.88964844 C-161.75261271 180.6215908 -163.31659726 179.33422084 -166.62548828 176.70214844 C-172.14138157 173.85523577 -177.32603018 179.06014325 -181.1051178 182.79740906 Z " fill="#000000" transform="translate(252.62548828125,232.2978515625)"/>
<path d="M0 0 C0.92804947 -0.0071553 1.85609894 -0.01431061 2.81227112 -0.02168274 C3.83358627 -0.02437164 4.85490143 -0.02706055 5.90716553 -0.02983093 C6.98046616 -0.03640213 8.05376678 -0.04297333 9.15959167 -0.04974365 C12.72356225 -0.06950915 16.28749063 -0.08114661 19.85150146 -0.09111023 C21.06679283 -0.09518576 22.2820842 -0.09926128 23.53420258 -0.10346031 C29.96662731 -0.12433507 36.39903063 -0.13863063 42.83148193 -0.147995 C49.48077132 -0.15906141 56.12971803 -0.19346037 62.77890396 -0.23316669 C67.8867048 -0.25929415 72.9944255 -0.26768342 78.10228729 -0.27127647 C80.55350757 -0.27615254 83.00472404 -0.28779534 85.45587921 -0.30631447 C88.88652646 -0.3306223 92.31630255 -0.32975567 95.74700928 -0.32279968 C96.76022751 -0.33560974 97.77344574 -0.3484198 98.81736755 -0.36161804 C104.56606307 -0.31912186 108.15622714 0.10829119 112.58587646 4.14717102 C117.34343844 9.37972069 117.15746781 14.205474 117.10345459 20.92256165 C117.11046387 21.99644638 117.11747314 23.07033112 117.12469482 24.17675781 C117.1422703 27.71924351 117.13065292 31.26092748 117.11712646 34.80342102 C117.11982149 37.26912082 117.12370399 39.73481958 117.12872314 42.20051575 C117.13461762 47.36529164 117.12605643 52.52979062 117.10736084 57.6945343 C117.08457185 64.31239617 117.09769513 70.92960914 117.1216507 77.5474472 C117.13610972 82.63812645 117.13150208 87.72865204 117.12113953 92.81933594 C117.11847256 95.25936968 117.12174092 97.6994174 117.13105774 100.13943481 C117.14122449 103.55059222 117.12571881 106.96070102 117.10345459 110.3717804 C117.11155151 111.37871445 117.11964844 112.3856485 117.12799072 113.4230957 C117.05879795 119.14994048 116.60070973 122.73150296 112.58587646 127.14717102 C107.3533268 131.904733 102.52757349 131.71876236 95.81048584 131.66474915 C94.19965874 131.67526306 94.19965874 131.67526306 92.55628967 131.68598938 C89.01380398 131.70356486 85.47212 131.69194747 81.92962646 131.67842102 C79.46392667 131.68111604 76.9982279 131.68499855 74.53253174 131.6900177 C69.36775584 131.69591217 64.20325687 131.68735098 59.03851318 131.6686554 C52.42065131 131.6458664 45.80343835 131.65898968 39.18560028 131.68294525 C34.09492103 131.69740427 29.00439544 131.69279664 23.91371155 131.68243408 C21.47367781 131.67976711 19.03363008 131.68303547 16.59361267 131.69235229 C13.18245527 131.70251905 9.77234646 131.68701336 6.36126709 131.66474915 C5.35433304 131.67284607 4.34739899 131.68094299 3.30995178 131.68928528 C-2.4363932 131.6198569 -5.90372288 131.07380199 -10.41412354 127.14717102 C-15.65674023 120.4876309 -15.56530469 114.57264771 -15.57525635 106.45088196 C-15.5827037 104.99380577 -15.5827037 104.99380577 -15.59030151 103.5072937 C-15.60488738 100.29870389 -15.61171938 97.09016352 -15.61724854 93.88154602 C-15.62300315 91.64580789 -15.62876085 89.41006978 -15.63452148 87.17433167 C-15.64502146 82.48705313 -15.65087062 77.79979169 -15.65435791 73.11250305 C-15.65983891 67.11943136 -15.68386298 61.12658727 -15.71232986 55.13358688 C-15.73099486 50.51463673 -15.73616392 45.89574096 -15.73769379 41.27675629 C-15.74071237 39.06805935 -15.74871394 36.85936319 -15.76187897 34.65070343 C-15.77901917 31.55397444 -15.77703958 28.45779597 -15.77056885 25.36103821 C-15.77978363 24.45682632 -15.78899841 23.55261444 -15.79849243 22.6210022 C-15.75797602 16.40092724 -15.28730117 9.3688043 -10.96214676 4.51910019 C-7.25494513 1.36110906 -4.7762989 0.02523307 0 0 Z M0.58587646 16.14717102 C0.56525146 32.46154602 0.54462646 48.77592102 0.52337646 65.58467102 C0.51427246 70.74406311 0.50516846 75.9034552 0.49578857 81.2191925 C0.49244502 85.82692685 0.49244502 85.82692685 0.49043274 90.43466187 C0.48889287 92.49378678 0.48536707 94.55291077 0.4803009 96.61203003 C0.47302597 99.72328773 0.47196896 102.83449013 0.47235107 105.945755 C0.46875297 106.86962478 0.46515486 107.79349455 0.46144772 108.74536037 C0.05995792 112.76547453 0.05995792 112.76547453 1.58587646 116.14717102 C4.44855213 116.2204227 7.28659546 116.23955307 10.14837646 116.20967102 C11.35783936 116.20290344 11.35783936 116.20290344 12.59173584 116.19599915 C14.58981403 116.1841762 16.58785429 116.16624016 18.58587646 116.14717102 C18.59522217 115.44221497 18.60456787 114.73725891 18.61419678 114.01094055 C18.66844509 110.7640195 18.7519837 107.51845614 18.83587646 104.27217102 C18.857146 102.6092804 18.857146 102.6092804 18.87884521 100.91279602 C19.1473344 91.78416378 20.56586621 83.36014933 27.39837646 76.77217102 C29.29955257 75.03657809 29.29955257 75.03657809 30.58587646 73.14717102 C30.30659074 70.68480188 29.47577677 68.88163645 28.52337646 66.58467102 C26.42110912 58.87635742 26.86279136 51.25192295 30.58587646 44.14717102 C33.75237474 38.70079399 38.72955366 36.06007968 44.58587646 34.14717102 C52.3278798 33.07163523 59.14927481 33.48829744 65.58587646 38.14717102 C70.91665915 42.38756634 73.90014158 47.85959633 74.97259521 54.56513977 C75.28454519 61.33122718 73.20995398 66.9852747 70.58587646 73.14717102 C71.30775146 73.64217102 72.02962646 74.13717102 72.77337646 74.64717102 C78.86379803 80.06087908 82.11589733 86.85703447 82.83563232 94.95845032 C83.00448611 98.16717412 83.11938198 101.37283347 83.21087646 104.58467102 C83.24954834 105.69777649 83.28822021 106.81088196 83.32806396 107.9577179 C83.42178282 110.68727954 83.50489377 113.41720183 83.58587646 116.14717102 C89.19587646 116.14717102 94.80587646 116.14717102 100.58587646 116.14717102 C100.58587646 83.14717102 100.58587646 50.14717102 100.58587646 16.14717102 C67.58587646 16.14717102 34.58587646 16.14717102 0.58587646 16.14717102 Z M44.64837646 51.27217102 C42.39802143 53.98090462 42.39802143 53.98090462 42.02337646 57.14717102 C42.73023608 60.91708897 43.76755861 62.55135194 46.58587646 65.14717102 C50.2188076 66.38391354 51.82779599 66.49175305 55.33587646 64.89717102 C57.79669498 63.17352333 57.79669498 63.17352333 59.58587646 60.14717102 C59.44756177 56.34351688 59.08503115 53.89590306 56.96087646 50.70967102 C52.45545273 47.74557646 48.92783145 48.17639507 44.64837646 51.27217102 Z M37.21087646 88.70967102 C34.80192287 92.32310142 34.46371468 95.0131828 34.48822021 99.25263977 C34.49071777 100.13846741 34.49321533 101.02429504 34.49578857 101.93696594 C34.50489258 103.05820862 34.51399658 104.17945129 34.52337646 105.33467102 C34.54400146 108.90279602 34.56462646 112.47092102 34.58587646 116.14717102 C45.47587646 116.14717102 56.36587646 116.14717102 67.58587646 116.14717102 C67.68900146 112.68217102 67.79212646 109.21717102 67.89837646 105.64717102 C67.94389648 104.57144836 67.9894165 103.49572571 68.03631592 102.3874054 C68.13144281 95.73465989 67.04305376 91.20822394 62.58587646 86.14717102 C58.33557545 82.58045031 54.32902719 81.48694722 48.79290771 81.76045227 C43.87928171 82.62142391 40.59610637 85.05718612 37.21087646 88.70967102 Z " fill="#000000" transform="translate(213.41412353515625,61.85282897949219)"/>
<path d="M0 0 C3.04062818 0.6334642 4.71225155 1.34431386 6.7734375 3.69140625 C15.49914544 17.44690125 16.68883325 34.9217273 13.75 50.5546875 C11.29844486 60.59074135 6.99477468 69.25391824 1 77.625 C0.55140625 78.25921875 0.1028125 78.8934375 -0.359375 79.546875 C-9.47303926 91.23380916 -24.50564458 99.1858659 -39 101.625 C-54.50710313 102.90538994 -70.09089844 102.62737839 -83.546875 93.96875 C-85.31933318 92.32970265 -86.13304935 90.87217058 -87 88.625 C-86.81416141 85.58963635 -86.44051393 83.40237753 -84.9375 80.75 C-81.71121831 78.87667515 -78.56818851 79.0567782 -75 79.625 C-73.46044047 80.20233482 -71.93972501 80.83150987 -70.4375 81.5 C-58.94365278 86.43600801 -46.33464242 86.6975312 -34.5078125 82.8046875 C-21.02396163 77.25251361 -10.65780784 67.73486851 -4.99609375 54.23046875 C-0.42253846 41.26101486 -0.84013338 27.24541593 -6.6875 14.6875 C-8.15220867 11.26984643 -8.637907 9.29296526 -8 5.625 C-5.54405875 2.30225596 -4.0743356 0.84881992 0 0 Z " fill="#000000" transform="translate(241,273.375)"/>
<path d="M0 0 C1.59333043 3.18666086 1.38375426 6.53199853 1 10 C-0.125 11.9375 -0.125 11.9375 -2 13 C-7.00620306 14.32198436 -9.84646714 13.64058901 -14.5625 11.625 C-26.61047914 6.54469784 -39.61580583 6.32599301 -51.96484375 10.671875 C-64.07901121 15.9727977 -73.3136265 24.00453775 -79 36 C-84.06628447 49.23821701 -84.50410716 61.54854483 -80 75 C-79.443125 76.11375 -78.88625 77.2275 -78.3125 78.375 C-76.69963419 81.60073163 -76.39413379 83.44053602 -77 87 C-79.45594125 90.32274404 -80.9256644 91.77618008 -85 92.625 C-88.9815684 91.79550658 -90.82600503 90.30945732 -93 87 C-101.12394006 71.26867098 -102.26409983 53.83960777 -97.3203125 36.92578125 C-93.79065225 25.94371238 -88.26851747 17.05092491 -80 9 C-79.40960938 8.37738281 -78.81921875 7.75476563 -78.2109375 7.11328125 C-59.38481849 -11.33963276 -21.69080835 -16.56389001 0 0 Z " fill="#000000" transform="translate(224,253)"/>
<path d="M0 0 C1.1496373 -0.0071553 2.2992746 -0.01431061 3.48374939 -0.02168274 C4.74615952 -0.02437164 6.00856964 -0.02706055 7.30923462 -0.02983093 C8.65130285 -0.03609694 9.99336935 -0.04274386 11.33543396 -0.04974365 C15.74286698 -0.07076603 20.15030029 -0.08114271 24.55776978 -0.09111023 C26.07541548 -0.09515814 27.593061 -0.09927507 29.11070633 -0.10346031 C36.23928218 -0.12250612 43.3678477 -0.13673975 50.49644411 -0.14507228 C58.72535898 -0.15484996 66.95400524 -0.18118562 75.18282545 -0.22157317 C81.54384795 -0.25172257 87.90479338 -0.26653993 94.26588595 -0.26985329 C98.06505735 -0.27220469 101.86394158 -0.2811767 105.66303635 -0.30631447 C109.23688981 -0.32958067 112.81026671 -0.33383467 116.38417625 -0.32355309 C118.31911164 -0.32282107 120.25402276 -0.34192152 122.18885803 -0.36161804 C123.34413498 -0.35467422 124.49941193 -0.34773041 125.68969727 -0.34057617 C126.69147696 -0.34296453 127.69325665 -0.34535288 128.7253933 -0.34781361 C132.24081117 0.28576239 133.92271284 1.6943632 136.47183228 4.14717102 C137.93479705 7.62171236 137.58458346 8.86797761 136.15933228 12.39717102 C134.47183228 15.14717102 134.47183228 15.14717102 132.47183228 16.14717102 C130.64613105 16.2512714 128.81663056 16.29104878 126.98799133 16.30107117 C125.24035492 16.31397186 125.24035492 16.31397186 123.45741272 16.32713318 C121.5303524 16.3335231 121.5303524 16.3335231 119.56436157 16.34004211 C118.20273631 16.34794254 116.84111314 16.35621145 115.47949219 16.36482239 C111.00169883 16.39104869 106.52389608 16.40635025 102.04605103 16.42060852 C100.5051911 16.42596788 98.96433125 16.43134539 97.42347145 16.43674088 C91.01451649 16.45837017 84.60556406 16.47710737 78.19658184 16.48836327 C69.00836258 16.50460584 59.82056598 16.53779 50.63250607 16.59476411 C44.17384224 16.63344966 37.71529151 16.65299426 31.25651485 16.65828383 C27.39801299 16.66193916 23.53996186 16.6739787 19.68158531 16.70638657 C16.05104301 16.73644358 12.42122471 16.74278815 8.79058456 16.73100281 C6.82460001 16.73067659 4.8586603 16.75515804 2.89283752 16.78038025 C-6.71832776 16.71225339 -6.71832776 16.71225339 -9.82789612 13.80210876 C-11.90531352 10.55826592 -12.1722366 8.93107569 -11.52816772 5.14717102 C-8.6956748 0.15658825 -5.39822273 0.02304557 0 0 Z " fill="#000000" transform="translate(317.5281677246094,226.8528289794922)"/>
<path d="M0 0 C1.15238663 -0.00990463 2.30477325 -0.01980927 3.49208069 -0.03001404 C4.74730026 -0.02551239 6.00251984 -0.02101074 7.29577637 -0.01637268 C8.63814359 -0.02207822 9.98050597 -0.0290432 11.32286072 -0.03717041 C14.96128419 -0.05509537 18.59946641 -0.05393495 22.23792076 -0.04822803 C25.27727444 -0.04513566 28.31658181 -0.05122904 31.3559289 -0.05726677 C38.52618424 -0.07130776 45.69632043 -0.06975387 52.86657715 -0.05836487 C60.2608594 -0.0468795 67.65477913 -0.06096707 75.04901361 -0.08776134 C81.40160757 -0.10991813 87.75408773 -0.11655593 94.10671759 -0.11068493 C97.89911934 -0.10731461 101.69128862 -0.10973537 105.48365784 -0.12693596 C109.04937606 -0.14240328 112.614557 -0.13845267 116.18025398 -0.11963081 C118.11036641 -0.11418826 120.04050295 -0.12846005 121.9705658 -0.14332581 C123.12295242 -0.13349167 124.27533905 -0.12365753 125.46264648 -0.11352539 C126.46182854 -0.11331611 127.46101059 -0.11310682 128.49047089 -0.1128912 C131.99876227 0.52784007 133.68514095 1.93960692 136.23132324 4.38768005 C137.69428802 7.86222139 137.34407443 9.10848664 135.91882324 12.63768005 C134.23132324 15.38768005 134.23132324 15.38768005 132.23132324 16.38768005 C130.39070913 16.49183277 128.54632062 16.53156165 126.70278931 16.5415802 C125.52783905 16.55018066 124.35288879 16.55878113 123.14233398 16.56764221 C121.84670532 16.57190216 120.55107666 16.57616211 119.21618652 16.58055115 C117.84308667 16.58845145 116.46998889 16.59672036 115.09689331 16.60533142 C110.58182764 16.63155599 106.06675267 16.64685769 101.55163574 16.66111755 C99.99837106 16.66647672 98.44510644 16.67185423 96.89184189 16.67724991 C90.43227251 16.69887768 83.97270564 16.71761571 77.51310921 16.7288723 C68.24931634 16.74512087 58.98594229 16.77832131 49.72230732 16.83527315 C43.21185485 16.87393745 36.70151457 16.89350069 30.19095027 16.89879286 C26.300624 16.9024507 22.41074436 16.91451709 18.52054214 16.9468956 C14.86127736 16.97691579 11.20273086 16.9833104 7.54336929 16.97151184 C5.55930116 16.97118505 3.57527776 16.99569017 1.59136963 17.02088928 C-0.17951523 17.00841156 -0.17951523 17.00841156 -1.98617554 16.99568176 C-3.01229887 16.99899191 -4.0384222 17.00230206 -5.09564018 17.00571251 C-8.74612528 16.1616843 -9.79049338 14.47983933 -11.76867676 11.38768005 C-12.11633301 9.25486755 -12.11633301 9.25486755 -11.83117676 7.26268005 C-11.76027832 6.60010193 -11.68937988 5.9375238 -11.61633301 5.25486755 C-9.48808284 0.56683263 -4.643913 0.01129346 0 0 Z " fill="#000000" transform="translate(317.7686767578125,259.61231994628906)"/>
<path d="M0 0 C1.69921349 -0.00856522 1.69921349 -0.00856522 3.43275452 -0.01730347 C4.67646317 -0.01842133 5.92017181 -0.01953918 7.2015686 -0.02069092 C8.51070724 -0.02565582 9.81984589 -0.03062073 11.1686554 -0.03573608 C14.76167358 -0.04885279 18.35467308 -0.0553035 21.94771147 -0.05974674 C24.19256688 -0.06267836 26.4374172 -0.06678332 28.68227005 -0.07125092 C35.70619762 -0.0849233 42.73011352 -0.09459149 49.75405347 -0.09845281 C57.86179942 -0.10293448 65.96937685 -0.12048842 74.07707155 -0.1494534 C80.34467775 -0.1710674 86.61223652 -0.18115692 92.87987959 -0.18249393 C96.62310427 -0.18354207 100.36617049 -0.18945182 104.10935593 -0.20731354 C108.28472885 -0.22685028 112.4597488 -0.2225064 116.63516235 -0.21600342 C117.87482254 -0.2252182 119.11448273 -0.23443298 120.39170837 -0.243927 C122.09938133 -0.23557327 122.09938133 -0.23557327 123.84155273 -0.22705078 C124.82858374 -0.22851734 125.81561474 -0.2299839 126.83255577 -0.2314949 C130.06947183 0.21190754 131.93488993 1.20206611 134.54776001 3.14044189 C136.22130452 6.48753092 136.77332131 8.23819671 135.86026001 11.89044189 C134.54776001 14.14044189 134.54776001 14.14044189 131.54776001 16.14044189 C129.00335789 16.40050411 129.00335789 16.40050411 125.89897156 16.41459656 C124.72264664 16.42457169 123.54632172 16.43454681 122.33435059 16.44482422 C121.0423172 16.44548889 119.75028381 16.44615356 118.4190979 16.44683838 C117.04584807 16.45445911 115.67260251 16.46288646 114.29936218 16.47206116 C110.56797709 16.49401962 106.83667394 16.50280664 103.10523152 16.5078876 C100.77461157 16.51152909 98.44401316 16.517768 96.11340141 16.52488899 C87.98449636 16.54938658 79.85565517 16.56243639 71.72671509 16.565979 C64.1460992 16.56961625 56.56588772 16.59952396 48.98539549 16.64138359 C42.47915507 16.67605338 35.97304891 16.69152685 29.46671671 16.69222504 C25.57977991 16.69301889 21.69325511 16.70180664 17.80641365 16.7302227 C14.15121177 16.75634781 10.49676509 16.75864065 6.84151268 16.74256706 C4.8598597 16.7398804 2.87822179 16.76197325 0.896698 16.78475952 C-0.87201912 16.77011406 -0.87201912 16.77011406 -2.6764679 16.75517273 C-3.70129241 16.75718406 -4.72611692 16.75919538 -5.78199673 16.76126766 C-8.45223999 16.14044189 -8.45223999 16.14044189 -10.817132 13.82858372 C-12.45223999 11.14044189 -12.45223999 11.14044189 -12.38973999 7.51544189 C-11.13477967 2.99758475 -11.13477967 2.99758475 -8.45223999 1.14044189 C-5.36346587 0.11085052 -3.2373654 0.00976406 0 0 Z " fill="#000000" transform="translate(318.4522399902344,292.85955810546875)"/>
<path d="M0 0 C0.88334015 -0.00540298 1.7666803 -0.01080597 2.67678833 -0.01637268 C5.5953323 -0.02887573 8.51289295 -0.01235981 11.43139648 0.00561523 C13.45873568 0.0054603 15.48607517 0.00397219 17.51341248 0.00120544 C21.76119081 -0.00017921 26.00863176 0.01239186 30.25634766 0.03515625 C35.70642616 0.06355904 41.15594474 0.06079948 46.6060648 0.04806614 C50.79160868 0.0411184 54.97702267 0.0488876 59.16254997 0.06132317 C61.17243896 0.06584519 63.18234186 0.06616793 65.19223213 0.06225777 C67.99823837 0.05935397 70.80346692 0.07581197 73.609375 0.09765625 C74.8601458 0.09090378 74.8601458 0.09090378 76.13618469 0.08401489 C81.81838648 0.15767695 81.81838648 0.15767695 83.92599392 1.87750149 C85.71689971 4.09120831 86.03773987 5.67020389 86.23999023 8.50170898 C85.30382773 11.5982465 84.53575701 13.20594221 82.23999023 15.50170898 C79.36970268 15.71095775 76.59513042 15.79534497 73.72290039 15.79223633 C72.84145859 15.79895355 71.96001678 15.80567078 71.05186462 15.81259155 C68.12753721 15.83164534 65.20343842 15.83549954 62.27905273 15.83764648 C60.25125025 15.8440696 58.2234487 15.85079759 56.19564819 15.8578186 C51.94022472 15.86981007 47.68488254 15.87349754 43.42944336 15.87231445 C37.97263803 15.87211123 32.51635332 15.8994085 27.0596714 15.93385887 C22.86981811 15.9560818 18.68009098 15.9601534 14.49018478 15.959095 C12.47830792 15.9614581 10.46642794 15.97032131 8.45460892 15.98575974 C5.64132364 16.00532533 2.82917214 15.99961876 0.01586914 15.98754883 C-0.81752487 15.99878784 -1.65091888 16.01002686 -2.50956726 16.02160645 C-6.11465869 15.98224269 -8.31044875 15.82525012 -11.2772522 13.69009399 C-13.4562029 10.47420546 -13.30162763 8.29303406 -12.76000977 4.50170898 C-9.46324137 -0.35849772 -5.40081318 -0.06277164 0 0 Z " fill="#000000" transform="translate(368.760009765625,177.498291015625)"/>
<path d="M0 0 C0.99569504 -0.00744736 0.99569504 -0.00744736 2.01150513 -0.01504517 C4.20649251 -0.0296439 6.4014076 -0.03646534 8.59643555 -0.04199219 C10.12477113 -0.04774604 11.6531067 -0.05350374 13.18144226 -0.05926514 C16.38675268 -0.06976897 19.59203807 -0.0756155 22.79736328 -0.07910156 C26.89633927 -0.08458148 30.99498227 -0.10860109 35.09385395 -0.13707352 C38.25179497 -0.15573664 41.40965643 -0.16090747 44.56764793 -0.16243744 C46.07826747 -0.1654568 47.58888585 -0.17346113 49.09945107 -0.18662262 C51.21759676 -0.20375882 53.33493731 -0.20178487 55.453125 -0.1953125 C56.6565303 -0.19895813 57.85993561 -0.20260376 59.09980774 -0.20635986 C62.82011912 0.20533853 65.23809819 1.21948984 68.4206543 3.16113281 C69.84727648 6.01437719 69.73099297 7.9956783 69.4206543 11.16113281 C67.85009766 13.82090759 67.85009766 13.82090759 65.4206543 16.16113281 C62.15722656 16.7893219 62.15722656 16.7893219 58.23706055 16.79223633 C57.52113739 16.79939163 56.80521423 16.80654694 56.06759644 16.81391907 C53.70546288 16.83080252 51.34522839 16.81140843 48.9831543 16.79003906 C47.33935387 16.79086781 45.69555353 16.7933274 44.05175781 16.79734802 C40.60838852 16.80020575 37.16566979 16.78550812 33.72241211 16.75805664 C29.3102845 16.72397319 24.89932013 16.7299919 20.48713684 16.74871922 C17.0932853 16.75929165 13.69970409 16.75034932 10.30587769 16.7353344 C8.67919721 16.73015386 7.0524885 16.73063285 5.42581177 16.73687935 C3.1513405 16.7423348 0.87853001 16.72194927 -1.39575195 16.69458008 C-2.68940674 16.6883815 -3.98306152 16.68218292 -5.31591797 16.67579651 C-8.5793457 16.16113281 -8.5793457 16.16113281 -11.00097656 14.34654236 C-13.29186572 11.17457777 -13.05643769 8.97786868 -12.5793457 5.16113281 C-9.6008174 -0.22858506 -5.72070437 0.03252322 0 0 Z " fill="#000000" transform="translate(368.579345703125,143.8388671875)"/>
<path d="M0 0 C0.71577713 -0.00686325 1.43155426 -0.0137265 2.16902161 -0.02079773 C4.53614109 -0.03910551 6.90260027 -0.03522269 9.26977539 -0.02954102 C10.91500566 -0.03410111 12.56023402 -0.03940616 14.20545959 -0.04542542 C17.65462987 -0.05436444 21.10356871 -0.05192472 24.55273438 -0.04199219 C28.97266994 -0.03050444 33.39180637 -0.05070637 37.81163692 -0.07990932 C41.20973281 -0.09825743 44.60763674 -0.09798164 48.00576973 -0.0922718 C49.63526086 -0.0921184 51.26476484 -0.09817845 52.89420891 -0.11056328 C55.1734716 -0.12544512 57.45125238 -0.11481871 59.73046875 -0.09765625 C61.67547523 -0.097407 61.67547523 -0.097407 63.65977478 -0.09715271 C66.92993164 0.40405273 66.92993164 0.40405273 69.35255432 2.21665955 C71.64114332 5.39030983 71.40706449 7.58698994 70.92993164 11.40405273 C69.16978033 14.58908843 68.43102248 15.23702246 64.92993164 16.40405273 C62.73325403 16.50373419 60.53364391 16.54235492 58.3347168 16.54931641 C57.33661232 16.55435432 57.33661232 16.55435432 56.31834412 16.55949402 C54.1185418 16.56899305 51.91881569 16.57094665 49.71899414 16.57202148 C48.18826262 16.57523499 46.65753141 16.57859913 45.12680054 16.58210754 C41.91729012 16.58809632 38.70780662 16.58994772 35.49829102 16.58935547 C31.39032286 16.5892539 27.28252776 16.60290124 23.1746006 16.62012768 C20.01241263 16.63125949 16.85026632 16.63327431 13.68806076 16.63274574 C12.17383605 16.63392426 10.65961021 16.63833887 9.14540482 16.64607811 C7.02479268 16.65590117 4.904554 16.65299093 2.78393555 16.64697266 C0.97549667 16.64911018 0.97549667 16.64911018 -0.86947632 16.65129089 C-4.04929503 16.40565742 -6.23635234 15.83602144 -9.07006836 14.40405273 C-11.23726042 11.74431703 -11.06541699 10.31567677 -10.88256836 6.84155273 C-9.31112242 0.1931276 -6.51071344 0.02714558 0 0 Z " fill="#000000" transform="translate(317.070068359375,359.595947265625)"/>
<path d="M0 0 C0.71577713 -0.00686325 1.43155426 -0.0137265 2.16902161 -0.02079773 C4.53614109 -0.03910551 6.90260027 -0.03522269 9.26977539 -0.02954102 C10.91500566 -0.03410111 12.56023402 -0.03940616 14.20545959 -0.04542542 C17.65462987 -0.05436444 21.10356871 -0.05192472 24.55273438 -0.04199219 C28.97266994 -0.03050444 33.39180637 -0.05070637 37.81163692 -0.07990932 C41.20973281 -0.09825743 44.60763674 -0.09798164 48.00576973 -0.0922718 C49.63526086 -0.0921184 51.26476484 -0.09817845 52.89420891 -0.11056328 C55.1734716 -0.12544512 57.45125238 -0.11481871 59.73046875 -0.09765625 C61.67547523 -0.097407 61.67547523 -0.097407 63.65977478 -0.09715271 C66.92993164 0.40405273 66.92993164 0.40405273 69.34864807 2.21665955 C71.65973381 5.41358974 71.47905973 7.56015613 70.92993164 11.40405273 C69.34765625 13.58946228 69.34765625 13.58946228 66.92993164 15.40405273 C63.66650391 15.91871643 63.66650391 15.91871643 59.74633789 15.9375 C59.03041473 15.94611557 58.31449158 15.95473114 57.57687378 15.96360779 C55.21502326 15.98627442 52.85435851 15.97952887 50.49243164 15.97045898 C48.84862922 15.97569405 47.20482982 15.9819701 45.56103516 15.98924255 C42.11777601 15.99964778 38.67493011 15.99508343 35.23168945 15.98046875 C30.81944883 15.96327397 26.40850959 15.98678278 21.99641418 16.02195835 C18.60257338 16.04391928 15.20904468 16.04249428 11.81515503 16.03419304 C10.18845186 16.03337291 8.56172592 16.0402481 6.93508911 16.05496407 C4.66042063 16.072389 2.38809943 16.05788951 0.11352539 16.03515625 C-1.18012939 16.03419449 -2.47378418 16.03323273 -3.80664062 16.03224182 C-7.07006836 15.40405273 -7.07006836 15.40405273 -9.52294922 13.09117126 C-11.07006836 10.40405273 -11.07006836 10.40405273 -11.00756836 6.77905273 C-9.1905676 0.23785 -6.5307777 0.02722923 0 0 Z " fill="#000000" transform="translate(317.070068359375,326.595947265625)"/>
</svg>
