 <svg width="16" height="16" viewBox="0 0 16 16" fill="none" xmlns="http://www.w3.org/2000/svg">
                      <path d="M8 15.5C3.85786 15.5 0.5 12.1421 0.5 8C0.5 3.85786 3.85786 0.5 8 0.5C12.1421 0.5 15.5 3.85786 15.5 8C15.5 12.1421 12.1421 15.5 8 15.5ZM8 14C11.3137 14 14 11.3137 14 8C14 4.68629 11.3137 2 8 2C4.68629 2 2 4.68629 2 8C2 11.3137 4.68629 14 8 14ZM8 6.93935L10.1213 4.81802L11.1819 5.87868L9.06066 8L11.1819 10.1213L10.1213 11.182L8 9.06066L5.87868 11.182L4.81802 10.1213L6.93935 8L4.81802 5.87868L5.87868 4.81802L8 6.93935Z" fill="#ED1A1A" />
                    </svg>