 <svg width="16" height="16" viewBox="0 0 12 16" fill="none" xmlns="http://www.w3.org/2000/svg">
                      <path fillRule="evenodd" clipRule="evenodd" d="M0.585787 1.25241C0.96086 0.877339 1.46957 0.666626 2 0.666626H7.33333C7.51847 0.666626 7.68593 0.742059 7.80673 0.863861L11.8032 4.86035C11.9247 4.98112 12 5.14842 12 5.33329V13.3333C12 13.8638 11.7893 14.3724 11.4142 14.7475C11.0391 15.1226 10.5305 15.3333 10 15.3333H2C1.46957 15.3333 0.96086 15.1226 0.585787 14.7475C0.210713 14.3724 0 13.8638 0 13.3333V2.66663C0 2.13619 0.210713 1.62749 0.585787 1.25241ZM2 1.99996H6.66667V5.33329C6.66667 5.70148 6.96513 5.99996 7.33333 5.99996H10.6667V13.3333C10.6667 13.5101 10.5964 13.6797 10.4714 13.8047C10.3464 13.9297 10.1768 14 10 14H2C1.82319 14 1.65362 13.9297 1.52859 13.8047C1.40357 13.6797 1.33333 13.5101 1.33333 13.3333V2.66663C1.33333 2.48981 1.40357 2.32025 1.52859 2.19522C1.65362 2.0702 1.82319 1.99996 2 1.99996ZM8 2.94276L9.72387 4.66663H8V2.94276Z" fill="#999999" />
                    </svg>